<?xml version="1.0" encoding="UTF-8"?>
<svg version="1.1" xmlns="http://www.w3.org/2000/svg" width="200" height="200">
<path d="M0 0 C-0.50740537 4.5420965 -2.18644005 6.87089843 -5.125 10.3125 C-5.93324219 11.26382812 -6.74148437 12.21515625 -7.57421875 13.1953125 C-8.37472656 14.12085937 -9.17523438 15.04640625 -10 16 C-10.68707031 16.82242187 -11.37414062 17.64484375 -12.08203125 18.4921875 C-15.56320405 22.61096458 -15.56320405 22.61096458 -17 24 C-17.66 24 -18.32 24 -19 24 C-19.27384521 24.58015869 -19.54769043 25.16031738 -19.82983398 25.75805664 C-20.98000046 27.96168251 -22.25413984 29.86816539 -23.72265625 31.87109375 C-24.25737549 32.60473145 -24.79209473 33.33836914 -25.34301758 34.09423828 C-26.19416138 35.25415283 -26.19416138 35.25415283 -27.0625 36.4375 C-32.48789176 43.88447178 -37.79959111 51.39423403 -43 59 C-46.31412795 57.8588375 -49.62600993 56.71129255 -52.9375 55.5625 C-53.88302734 55.23701172 -54.82855469 54.91152344 -55.80273438 54.57617188 C-56.70185547 54.26357422 -57.60097656 53.95097656 -58.52734375 53.62890625 C-59.35999756 53.34088135 -60.19265137 53.05285645 -61.05053711 52.75610352 C-63 52 -63 52 -64 51 C-63.84475809 44.20709414 -62.4177972 37.5744018 -60.8125 31 C-60.594729 30.10079834 -60.37695801 29.20159668 -60.15258789 28.27514648 C-58.62434054 22.13464538 -56.89944477 16.07837677 -54.9375 10.0625 C-54.70458252 9.33611328 -54.47166504 8.60972656 -54.23168945 7.86132812 C-52.21380773 1.91329824 -49.58955932 -3.68119915 -44 -7 C-29.43945219 -11.78563459 -13.28337182 -5.89028581 0 0 Z " fill="#04578D" transform="translate(189,12)"/>
<path d="M0 0 C2.19140625 1.09375 2.19140625 1.09375 5.44140625 3.09375 C4.63346805 7.36946789 2.57560465 9.11243933 -0.55859375 12.09375 C-1.54859375 13.57875 -1.54859375 13.57875 -2.55859375 15.09375 C-1.69234375 14.10375 -1.69234375 14.10375 -0.80859375 13.09375 C4.14514916 10.04529283 8.77077048 10.3766031 14.44140625 11.09375 C20.90059958 12.96614052 25.65125081 17.55839007 30.44140625 22.09375 C29.44140625 25.09375 29.44140625 25.09375 26.37890625 26.78125 C25.40953125 27.214375 24.44015625 27.6475 23.44140625 28.09375 C24.03308594 28.25230469 24.62476563 28.41085938 25.234375 28.57421875 C31.61082902 30.45698902 35.17876369 32.77369158 38.99609375 38.375 C40.59214743 41.37730637 41.17064947 43.86742816 41.69140625 47.21875 C41.8615625 48.25257812 42.03171875 49.28640625 42.20703125 50.3515625 C42.44140625 53.09375 42.44140625 53.09375 41.44140625 56.09375 C34.85761135 54.69536267 28.40650606 53.02425919 21.94140625 51.15625 C21.05582031 50.90423828 20.17023438 50.65222656 19.2578125 50.39257812 C14.96937982 49.16146419 10.69540437 47.88920931 6.4453125 46.53125 C5.7344751 46.304375 5.0236377 46.0775 4.29125977 45.84375 C1.68294422 44.78624104 0.10597306 43.33729657 -1.55859375 41.09375 C-1.55859375 40.43375 -1.55859375 39.77375 -1.55859375 39.09375 C-2.21859375 39.09375 -2.87859375 39.09375 -3.55859375 39.09375 C-2.68359375 35.21875 -2.68359375 35.21875 -1.55859375 34.09375 C-2.44546875 34.155625 -3.33234375 34.2175 -4.24609375 34.28125 C-7.96544659 34.07072059 -9.60761349 33.3069852 -12.55859375 31.09375 C-13.21859375 30.10375 -13.87859375 29.11375 -14.55859375 28.09375 C-16.96339977 27.76725241 -16.96339977 27.76725241 -19.62109375 27.96875 C-21.26593153 28.03954646 -22.91224332 28.08794277 -24.55859375 28.09375 C-25.55859375 27.09375 -25.55859375 27.09375 -25.61328125 24.28515625 C-25.14035651 14.73413274 -23.42291165 8.01197278 -17.49609375 0.46875 C-12.02118948 -2.09397115 -5.68296113 -2.01289616 0 0 Z M-8.55859375 19.09375 C-8.88859375 19.75375 -9.21859375 20.41375 -9.55859375 21.09375 C-8.89859375 21.09375 -8.23859375 21.09375 -7.55859375 21.09375 C-7.88859375 20.43375 -8.21859375 19.77375 -8.55859375 19.09375 Z M5.44140625 30.09375 C5.11140625 30.75375 4.78140625 31.41375 4.44140625 32.09375 C5.76140625 31.43375 7.08140625 30.77375 8.44140625 30.09375 C7.45140625 30.09375 6.46140625 30.09375 5.44140625 30.09375 Z " fill="#65C9E1" transform="translate(137.55859375,70.90625)"/>
<path d="M0 0 C1.30904659 3.68484695 0.68940214 6.28864228 -0.22265625 10.0390625 C-0.51116455 11.24780029 -0.79967285 12.45653809 -1.09692383 13.7019043 C-1.41855797 15.00965812 -1.74042175 16.31735548 -2.0625 17.625 C-2.38592531 18.96437886 -2.70842537 20.30398146 -3.0300293 21.64379883 C-3.5247423 23.70434106 -4.02013018 25.7646931 -4.51899719 27.82423401 C-5.63233799 32.42753695 -6.69794416 37.03890111 -7.734375 41.66015625 C-8.00113037 42.84593262 -8.26788574 44.03170898 -8.54272461 45.25341797 C-9.04753577 47.50545534 -9.54848605 49.75836239 -10.04516602 52.01220703 C-10.27389404 53.0226709 -10.50262207 54.03313477 -10.73828125 55.07421875 C-10.93462158 55.95682373 -11.13096191 56.83942871 -11.33325195 57.7487793 C-12 60 -12 60 -14 63 C-15.87939453 63.34057617 -15.87939453 63.34057617 -18.1328125 63.29296875 C-18.93847656 63.28330078 -19.74414062 63.27363281 -20.57421875 63.26367188 C-21.41597656 63.23853516 -22.25773437 63.21339844 -23.125 63.1875 C-24.39923828 63.16719727 -24.39923828 63.16719727 -25.69921875 63.14648438 C-27.79974837 63.11108219 -29.89995293 63.05727401 -32 63 C-41.27203983 15.83622408 -41.27203983 15.83622408 -34 4 C-24.73741842 -2.17505439 -10.70370545 -0.2015342 0 0 Z " fill="#04568C" transform="translate(135,0)"/>
<path d="M0 0 C0.34716797 2.68603516 0.34716797 2.68603516 0.4921875 6.2890625 C0.55566572 7.62656941 0.61965195 8.96405228 0.68408203 10.30151367 C0.71487854 11.00746674 0.74567505 11.7134198 0.77740479 12.44076538 C1.35565626 25.38235173 2.66998643 37.8784943 5.1953125 50.60546875 C5.82361965 53.7901757 6.20258701 56.73834917 6 60 C3.94587752 61.03758749 1.88130395 62.0545034 -0.1875 63.0625 C-1.33605469 63.63097656 -2.48460938 64.19945313 -3.66796875 64.78515625 C-7 66 -7 66 -9.55078125 66.18359375 C-17.31845722 62.42983646 -21.39010159 51.2350035 -25.3125 44.0625 C-26.55725786 41.80264908 -27.80328026 39.54349405 -29.05078125 37.28515625 C-29.59387939 36.29394775 -30.13697754 35.30273926 -30.6965332 34.28149414 C-31.80725984 32.10500842 -31.80725984 32.10500842 -33 31 C-33.40777599 26.32625981 -33.58534877 21.71702304 -32.0625 17.25 C-28.7648725 13.65258819 -24.94025322 10.85754016 -21 8 C-19.63875 6.948125 -19.63875 6.948125 -18.25 5.875 C-4.32142857 -2.16071429 -4.32142857 -2.16071429 0 0 Z " fill="#03568D" transform="translate(94,4)"/>
<path d="M0 0 C1.71362856 1.93093654 3.08289558 3.73956229 4.5 5.875 C4.92651855 6.49560303 5.35303711 7.11620605 5.79248047 7.75561523 C7.20951792 9.8275924 8.60499853 11.91313416 10 14 C11.012528 15.49382375 12.02555788 16.98730743 13.0390625 18.48046875 C15.58924406 22.2537377 18.10240647 26.04977734 20.59570312 29.86083984 C21.50472907 31.24555565 22.41972425 32.62637887 23.34179688 34.00244141 C24.53509081 35.78364865 25.707719 37.57667887 26.875 39.375 C27.53242187 40.37273437 28.18984375 41.37046875 28.8671875 42.3984375 C30 45 30 45 29.4140625 47.05859375 C28.94742188 47.69925781 28.48078125 48.33992188 28 49 C27.4534375 49.76699219 26.906875 50.53398438 26.34375 51.32421875 C25.43109375 52.49404297 25.43109375 52.49404297 24.5 53.6875 C23.8915625 54.47511719 23.283125 55.26273438 22.65625 56.07421875 C21 58 21 58 19 59 C16.85936579 57.84902131 14.89359191 56.65380666 12.875 55.3125 C12.26261475 54.91111816 11.65022949 54.50973633 11.01928711 54.09619141 C6.10018458 50.82670851 1.3065956 47.3926359 -3.4375 43.875 C-4.0867041 43.39716064 -4.7359082 42.91932129 -5.40478516 42.42700195 C-16.44781525 34.1043695 -16.44781525 34.1043695 -19 29 C-19.50905851 22.69705183 -18.58275148 19.11299305 -15.25 13.8125 C-14.90195312 13.22275391 -14.55390625 12.63300781 -14.1953125 12.02539062 C-6.97205228 0 -6.97205228 0 0 0 Z " fill="#0D67A5" transform="translate(51,27)"/>
<path d="M0 0 C9.86212216 1.53215112 18.80805321 8.58002864 27.10058594 13.8125 C29.24614579 15.15388857 31.40843326 16.46633882 33.5703125 17.78125 C35.13075766 18.7491149 36.69065891 19.71785731 38.25 20.6875 C39.00168457 21.13891357 39.75336914 21.59032715 40.52783203 22.05541992 C45.68177467 25.30298743 45.68177467 25.30298743 47.12890625 28.47265625 C46.96567406 31.6729964 46.072014 33.86397081 44.6875 36.75 C44.23761719 37.71421875 43.78773437 38.6784375 43.32421875 39.671875 C42 42 42 42 40 43 C37.26770536 42.4139141 34.61307947 41.75548911 31.921875 41.015625 C31.11768127 40.79936462 30.31348755 40.58310425 29.48492432 40.36029053 C27.77920107 39.89962255 26.07444942 39.43534439 24.37060547 38.96777344 C21.77704777 38.25740828 19.1799327 37.56147555 16.58203125 36.8671875 C14.92424356 36.41753439 13.26668381 35.96703994 11.609375 35.515625 C10.45124298 35.20603851 10.45124298 35.20603851 9.26971436 34.89019775 C4.12181555 33.46472359 -0.96592874 32.01261482 -4.8515625 28.16796875 C-7.47742834 23.21097712 -6.59812961 16.71803117 -5.42578125 11.390625 C-4.11657635 7.262127 -2.4402359 3.60225299 0 0 Z " fill="#146AAB" transform="translate(22,62)"/>
<path d="M0 0 C1.06226807 0.16137451 2.12453613 0.32274902 3.21899414 0.48901367 C8.85042414 1.41081315 13.69147054 2.5898369 18.8125 5.125 C19.3075 12.055 19.3075 12.055 19.8125 19.125 C11.73543559 20.96867774 3.68538591 22.54891736 -4.5 23.8125 C-5.32274414 23.94374268 -6.14548828 24.07498535 -6.99316406 24.21020508 C-13.53305191 25.18882539 -20.02259716 25.90129692 -26.5 24.3125 C-30.81981592 20.79637076 -32.05258464 16.47997418 -33.1875 11.125 C-33.47971387 6.76535754 -33.43706208 2.48540407 -33.1875 -1.875 C-24.94561571 -5.99594215 -8.65284536 -1.3482562 0 0 Z " fill="#0476BA" transform="translate(45.1875,102.875)"/>
<path d="M0 0 C4.0119958 8.53880523 7.54530754 17.22649951 11 26 C11.37253906 26.90363281 11.74507812 27.80726563 12.12890625 28.73828125 C14.12060971 33.90956513 14.47136356 38.84902879 12.90234375 44.140625 C11.16855025 47.7132904 8.57341974 49.42667616 5 51 C-0.9484016 52.66834759 -6.84297306 53.27364564 -13 53 C-14.04069343 49.87791972 -14.20111824 47.49434421 -14.31640625 44.21484375 C-14.3793689 42.47025879 -14.3793689 42.47025879 -14.44360352 40.69042969 C-14.48283936 39.45196289 -14.5220752 38.21349609 -14.5625 36.9375 C-14.6049585 35.68227539 -14.64741699 34.42705078 -14.69116211 33.13378906 C-15.00058371 23.41907154 -15.11569586 13.71845251 -15 4 C-13.44219668 3.32243118 -11.87849904 2.65840543 -10.3125 2 C-9.44238281 1.62875 -8.57226562 1.2575 -7.67578125 0.875 C-4.9427998 -0.01870488 -2.85299066 -0.16449676 0 0 Z " fill="#1B97D1" transform="translate(125,147)"/>
<path d="M0 0 C2.34996449 0.87461084 4.54202066 1.86201771 6.765625 3.0234375 C7.55324219 3.42046875 8.34085938 3.8175 9.15234375 4.2265625 C11.078125 5.7734375 11.078125 5.7734375 11.98828125 8.171875 C12.34844227 18.60088538 -3.01738385 33.61268656 -9.60742188 41.40161133 C-11.32771958 43.19699633 -12.42712586 43.75116895 -14.91796875 43.86328125 C-23.44482799 43.33120523 -30.7306485 40.18730771 -36.609375 33.8984375 C-37.2590625 32.8465625 -37.2590625 32.8465625 -37.921875 31.7734375 C-34.46210948 23.71839366 -25.39522847 18.47261519 -18.52807617 13.36279297 C-15.03178016 10.7364119 -11.9794983 7.89252056 -8.921875 4.7734375 C-7.7653177 3.7779807 -6.58184404 2.81174384 -5.359375 1.8984375 C-4.80121094 1.46789062 -4.24304688 1.03734375 -3.66796875 0.59375 C-1.921875 -0.2265625 -1.921875 -0.2265625 0 0 Z " fill="#1D99D3" transform="translate(76.921875,140.2265625)"/>
<path d="M0 0 C3.45868556 3.45868556 5.72876612 7.70087873 8 12 C8 12.66 8 13.32 8 14 C7.32195312 14.36351562 6.64390625 14.72703125 5.9453125 15.1015625 C-1.55124995 19.15095219 -9.03788102 23.20955823 -16.01171875 28.12109375 C-26.42830502 35.45322034 -26.42830502 35.45322034 -33 35 C-40.32701895 31.4830309 -44.83365961 24.85556939 -48.43359375 17.796875 C-49 16 -49 16 -48 13 C-45.66764043 11.96939589 -43.45355526 11.14341699 -41.03515625 10.37109375 C-40.32781845 10.13592545 -39.62048065 9.90075714 -38.89170837 9.65846252 C-37.38792531 9.16123618 -35.88219861 8.66985629 -34.37475586 8.18383789 C-32.09867665 7.44917691 -29.82940883 6.69607045 -27.56054688 5.93945312 C-7.85719412 -0.56569201 -7.85719412 -0.56569201 0 0 Z " fill="#1D99D2" transform="translate(67,125)"/>
<path d="M0 0 C2.12534659 0.14069196 4.25027529 0.28770921 6.375 0.4375 C7.55835937 0.51871094 8.74171875 0.59992188 9.9609375 0.68359375 C13 1 13 1 15 2 C16.43728689 8.78718811 15.66151548 15.05141212 14.75 21.875 C14.56630859 23.41220703 14.56630859 23.41220703 14.37890625 24.98046875 C12.36689723 40.65820243 12.36689723 40.65820243 8.16015625 46.59765625 C3.15015049 49.85008314 -3.5858844 48.43678375 -9.1953125 47.421875 C-14.59423075 46.09681412 -14.59423075 46.09681412 -17 45 C-18.43634546 40.69096362 -16.68062525 37.62810678 -15.125 33.5625 C-14.81344971 32.73298828 -14.50189941 31.90347656 -14.1809082 31.04882812 C-5.40749846 8.11124768 -5.40749846 8.11124768 0 0 Z " fill="#2099D2" transform="translate(91,150)"/>
<path d="M0 0 C5.08609718 2.25106108 8.48736712 6.1190469 12.375 10 C13.1175 10.71800781 13.86 11.43601563 14.625 12.17578125 C20.80606941 18.32408881 27.08729918 25.12688037 27.625 34.1875 C27.1936048 40.44273043 24.71124496 44.65869644 20.0625 48.875 C17.16868119 50.88295591 15.45913076 51.69478258 12 52 C7.25626055 44.8513827 3.38345886 37.29818456 -0.43286133 29.62695312 C-1.19065001 28.11628902 -1.9600403 26.61139305 -2.74047852 25.11230469 C-3.87626955 22.92858436 -4.9745796 20.72940096 -6.06640625 18.5234375 C-6.42134659 17.85766693 -6.77628693 17.19189636 -7.14198303 16.50595093 C-8.06469727 14.58349609 -8.06469727 14.58349609 -9 11 C-6.77512117 6.54892135 -3.60131536 3.40124229 0 0 Z " fill="#1A98D3" transform="translate(137,135)"/>
<path d="M0 0 C6.83572595 0.57835398 13.10390634 1.91057294 19.6875 3.8125 C21.05358398 4.1847168 21.05358398 4.1847168 22.44726562 4.56445312 C34.22058465 7.92459429 34.22058465 7.92459429 37.3515625 13.3359375 C39.70569497 23.00773476 38.07215565 32.09215951 34 41 C29.18017626 40.55618566 26.42446334 38.23163466 22.9375 35.125 C22.37675781 34.63829834 21.81601563 34.15159668 21.23828125 33.65014648 C16.29230034 29.33142353 11.45769683 24.88842878 6.65625 20.41015625 C4.07096988 17.95505983 4.07096988 17.95505983 1.1796875 16.06640625 C-1 14 -1 14 -1.5234375 11.0546875 C-1.47445312 10.00539062 -1.42546875 8.95609375 -1.375 7.875 C-1.34148437 6.82054688 -1.30796875 5.76609375 -1.2734375 4.6796875 C-1 2 -1 2 0 0 Z " fill="#1D99D2" transform="translate(140,119)"/>
<path d="M0 0 C0.98226562 0.54527344 0.98226562 0.54527344 1.984375 1.1015625 C2.89703125 1.60429688 3.8096875 2.10703125 4.75 2.625 C5.74386719 3.17671875 6.73773438 3.7284375 7.76171875 4.296875 C10.97724892 6.03824448 10.97724892 6.03824448 14.33203125 7.453125 C22.35344723 10.98371196 22.35344723 10.98371196 24.3046875 14.05078125 C24.9375 16.1875 24.9375 16.1875 25 20 C23.625 22 23.625 22 22 23 C23.03125 23.103125 24.0625 23.20625 25.125 23.3125 C28.95083945 23.99127797 31.63370025 25.11158795 35 27 C34.68444225 32.20670288 31.69871603 35.57730756 28 39 C23.17598094 40.60800635 19.19144723 41.05501014 14.58203125 38.8359375 C10.34020181 36.13722056 7.08519421 33.72644022 5 29 C6.65 28.01 8.3 27.02 10 26 C9.38511719 25.76925781 8.77023438 25.53851563 8.13671875 25.30078125 C7.32847656 24.97464844 6.52023438 24.64851563 5.6875 24.3125 C4.88699219 23.99925781 4.08648437 23.68601562 3.26171875 23.36328125 C0.32651594 21.59404847 -0.62636188 20.13661953 -2 17 C-2.36328125 13.5546875 -2.36328125 13.5546875 -2.3125 9.875 C-2.30863281 8.65554687 -2.30476563 7.43609375 -2.30078125 6.1796875 C-2 3 -2 3 0 0 Z " fill="#47BBE8" transform="translate(71,100)"/>
<path d="M0 0 C4.4703883 0.74506472 6.64065498 2.32089213 9.25 5.875 C12.54122211 11.19624099 13.69224234 16.78889094 14 23 C13.505 24.485 13.505 24.485 13 26 C6.7879698 24.74839095 0.85956414 23.07355395 -5.125 21 C-10.3868041 19.1954424 -15.63669406 17.47953267 -21 16 C-21 15.34 -21 14.68 -21 14 C-21.78375 13.731875 -22.5675 13.46375 -23.375 13.1875 C-26 12 -26 12 -28 9 C-28 8.01 -28 7.02 -28 6 C-25.34702041 4.40821225 -23.50307461 3.93145857 -20.375 3.5 C-16.93577375 3.33300503 -16.93577375 3.33300503 -15 1 C-12.1015625 0.734375 -12.1015625 0.734375 -8.625 0.75 C-6.91183594 0.74226563 -6.91183594 0.74226563 -5.1640625 0.734375 C-2.17993117 0.98489467 -0.51059322 1.44170076 2 3 C2.33 2.67 2.66 2.34 3 2 C2.01 2 1.02 2 0 2 C0 1.34 0 0.68 0 0 Z " fill="#20BBEB" transform="translate(166,101)"/>
<path d="M0 0 C1.24523437 0.02707031 2.49046875 0.05414063 3.7734375 0.08203125 C4.71445313 0.11683594 5.65546875 0.15164062 6.625 0.1875 C8.28553782 3.50857564 6.34009298 6.75857891 5.25 10.125 C3.61102481 15.32863637 2.34614822 20.07065241 2.125 25.5625 C1.88621795 29.93353811 1.88621795 29.93353811 -0.625 32.375 C-5.78535857 33.89965139 -5.78535857 33.89965139 -8.375 33.1875 C-13.41999705 27.54546188 -15.99604744 19.91386687 -16.75 12.5 C-16.31557036 8.66253816 -15.55341859 6.38251394 -13.375 3.1875 C-8.78927634 0.32142271 -5.35851766 -0.15165616 0 0 Z " fill="#1EBAEA" transform="translate(109.375,66.8125)"/>
<path d="M0 0 C3.45470404 1.60096041 4.39237779 3.50336807 5.890625 6.9296875 C7.07409125 10.90668456 6.74944635 13.1650707 5.5625 17.1875 C3.70725749 19.58172734 2.23580175 20.56255188 -0.4375 22.1875 C-1.7575 21.8575 -3.0775 21.5275 -4.4375 21.1875 C-4.4375 18.2175 -4.4375 15.2475 -4.4375 12.1875 C-5.0975 12.1875 -5.7575 12.1875 -6.4375 12.1875 C-6.540625 13.239375 -6.64375 14.29125 -6.75 15.375 C-7.66518265 20.45010381 -8.81667928 23.00153362 -13 26.0625 C-17.58754977 27.56387992 -21.75731717 27.35974918 -26.4375 26.1875 C-26.7675 25.5275 -27.0975 24.8675 -27.4375 24.1875 C-26.89480469 23.45144531 -26.35210937 22.71539062 -25.79296875 21.95703125 C-25.07753906 20.98121094 -24.36210938 20.00539062 -23.625 19 C-22.91730469 18.03707031 -22.20960937 17.07414062 -21.48046875 16.08203125 C-19.41383932 13.26867735 -19.41383932 13.26867735 -17.89453125 10.37890625 C-16.4375 8.1875 -16.4375 8.1875 -12.9375 7.3125 C-9.4375 7.1875 -9.4375 7.1875 -6.4375 8.1875 C-6.334375 7.424375 -6.23125 6.66125 -6.125 5.875 C-5.13225998 1.99428902 -4.12031719 0.31694748 0 0 Z " fill="#4DB9E0" transform="translate(125.4375,118.8125)"/>
<path d="M0 0 C2.74859776 2.3990651 3.95761957 4.78607027 5.375 8.125 C6.99713035 11.86875816 8.74817745 15.332782 10.875 18.8125 C12.59006749 21.81790039 13.00377423 22.79619169 12.9375 26.375 C12 29 12 29 10 32 C5.48766744 31.43427472 1.94451129 30.26914371 -2.125 28.25 C-3.13820313 27.76015625 -4.15140625 27.2703125 -5.1953125 26.765625 C-8.25580184 24.83896597 -10.00483819 23.00224349 -12 20 C-12.29265211 13.56165347 -7.61212314 7.92341243 -3.4921875 3.3125 C-2.36091439 2.17476247 -1.18560981 1.08099718 0 0 Z " fill="#1DBAEB" transform="translate(85,77)"/>
<path d="M0 0 C2.64746444 1.39930441 3.96676698 2.7408522 6 5 C5.67 5.99 5.34 6.98 5 8 C4.01 8 3.02 8 2 8 C2 8.66 2 9.32 2 10 C0.68 10 -0.64 10 -2 10 C-2.33 11.98 -2.66 13.96 -3 16 C-3.66 15.67 -4.32 15.34 -5 15 C-5 15.66 -5 16.32 -5 17 C-5.99 17 -6.98 17 -8 17 C-8.12117188 17.63808594 -8.24234375 18.27617188 -8.3671875 18.93359375 C-8.53476563 19.75988281 -8.70234375 20.58617188 -8.875 21.4375 C-9.03742188 22.26121094 -9.19984375 23.08492187 -9.3671875 23.93359375 C-9.57601562 24.61550781 -9.78484375 25.29742187 -10 26 C-13.25303044 27.62651522 -16.39225602 27.11453156 -20 27 C-21.61253453 25.38746547 -21.24791423 23.66400957 -21.3125 21.4375 C-21.27939327 16.79593695 -20.30941731 13.80299001 -18.01171875 9.8203125 C-16.81774267 7.81562467 -16.81774267 7.81562467 -15.9375 4.625 C-13.57120239 -2.00063332 -5.83138847 -0.79134784 0 0 Z " fill="#1DBAEB" transform="translate(135,70)"/>
<path d="M0 0 C2.87275584 -0.04482844 5.54309138 -0.01500952 8.37890625 0.453125 C9.03890625 1.113125 9.69890625 1.773125 10.37890625 2.453125 C10.99765625 2.535625 11.61640625 2.618125 12.25390625 2.703125 C15.53632662 3.86162631 16.51233808 6.62316681 18.37890625 9.453125 C19.36890625 9.453125 20.35890625 9.453125 21.37890625 9.453125 C21.37890625 10.443125 21.37890625 11.433125 21.37890625 12.453125 C18.4814701 13.41893705 16.27985547 13.6470853 13.25390625 13.828125 C8.56215674 14.20820033 4.5491018 15.17180335 0.15625 16.83203125 C-1.62109375 17.453125 -1.62109375 17.453125 -3.62109375 17.453125 C-3.62109375 18.113125 -3.62109375 18.773125 -3.62109375 19.453125 C-7.25109375 19.453125 -10.88109375 19.453125 -14.62109375 19.453125 C-15.28109375 18.133125 -15.94109375 16.813125 -16.62109375 15.453125 C-15.96109375 14.463125 -15.30109375 13.473125 -14.62109375 12.453125 C-13.96109375 12.453125 -13.30109375 12.453125 -12.62109375 12.453125 C-12.62109375 11.793125 -12.62109375 11.133125 -12.62109375 10.453125 C-11.71359375 9.875625 -10.80609375 9.298125 -9.87109375 8.703125 C-6.42287281 6.69040769 -6.42287281 6.69040769 -4.93359375 3.203125 C-2.62109375 0.453125 -2.62109375 0.453125 0 0 Z " fill="#20B9E9" transform="translate(143.62109375,82.546875)"/>
<path d="M0 0 C1.82086605 0.8999338 3.63152033 1.82055314 5.4375 2.75 C6.44683594 3.26046875 7.45617187 3.7709375 8.49609375 4.296875 C11 6 11 6 12 10 C14.97 10.66 17.94 11.32 21 12 C21 14.97 21 17.94 21 21 C20.01 21 19.02 21 18 21 C18 21.66 18 22.32 18 23 C10.13069489 24.60883571 10.13069489 24.60883571 5.75 22.25 C4.38875 21.13625 4.38875 21.13625 3 20 C2.12730469 19.60296875 1.25460938 19.2059375 0.35546875 18.796875 C-2 17 -2 17 -2.55859375 13.75 C-2.51863281 12.5125 -2.47867188 11.275 -2.4375 10 C-2.41558594 8.7625 -2.39367187 7.525 -2.37109375 6.25 C-2 3 -2 3 0 0 Z " fill="#20B9E9" transform="translate(71,100)"/>
<path d="M0 0 C5.08696692 2.54348346 8.37964791 6.01151278 12.375 10 C13.1175 10.71800781 13.86 11.43601563 14.625 12.17578125 C20.80606941 18.32408881 27.08729918 25.12688037 27.625 34.1875 C27.1936048 40.44273043 24.71124496 44.65869644 20.0625 48.875 C17.16868119 50.88295591 15.45913076 51.69478258 12 52 C8.73034566 47.04597827 5.86783215 41.97707157 3.1875 36.6875 C2.87353271 36.07696777 2.55956543 35.46643555 2.23608398 34.83740234 C0.82746309 32.01703635 0 30.19780388 0 27 C0.99 27.33 1.98 27.66 3 28 C3.33 30.31 3.66 32.62 4 35 C4.66 35 5.32 35 6 35 C6 36.32 6 37.64 6 39 C6.66 39 7.32 39 8 39 C8 39.66 8 40.32 8 41 C11.92438786 42.66489182 15.89100419 43.87204037 20 45 C20 44.01 20 43.02 20 42 C20.99 41.505 20.99 41.505 22 41 C23.64864166 34.52939139 23.12989356 29.79609918 20 24 C19.608125 23.195625 19.21625 22.39125 18.8125 21.5625 C18.544375 21.046875 18.27625 20.53125 18 20 C17.34 20 16.68 20 16 20 C16 19.01 16 18.02 16 17 C13.69 17 11.38 17 9 17 C8.67 16.34 8.34 15.68 8 15 C8.99 15 9.98 15 11 15 C10.67 13.68 10.34 12.36 10 11 C7.69 10.34 5.38 9.68 3 9 C3 8.34 3 7.68 3 7 C2.1028125 7.2784375 2.1028125 7.2784375 1.1875 7.5625 C-1 8 -1 8 -4 7 C-4.12375 8.134375 -4.2475 9.26875 -4.375 10.4375 C-4.58125 11.613125 -4.7875 12.78875 -5 14 C-5.99 14.495 -5.99 14.495 -7 15 C-7.66 13.35 -8.32 11.7 -9 10 C-6.03 6.7 -3.06 3.4 0 0 Z " fill="#2396C7" transform="translate(137,135)"/>
<path d="M0 0 C0 0.99 0 1.98 0 3 C0.90363281 3.10957031 1.80726562 3.21914062 2.73828125 3.33203125 C3.91777344 3.49058594 5.09726563 3.64914063 6.3125 3.8125 C7.48425781 3.96332031 8.65601563 4.11414063 9.86328125 4.26953125 C13.03364102 5.00783421 14.15176087 5.39480286 16 8 C16.96070434 10.88211302 17.10581883 12.69850044 17.0625 15.6875 C17.05347656 16.49574219 17.04445312 17.30398437 17.03515625 18.13671875 C17.02355469 18.75160156 17.01195312 19.36648437 17 20 C12.97113299 18.80222873 9.11150559 17.27413182 5.25 15.625 C4.30640625 15.22539063 3.3628125 14.82578125 2.390625 14.4140625 C-0.29792346 12.8237773 -1.05264819 11.94119689 -2 9 C-2 7.68 -2 6.36 -2 5 C-4.90802461 7.21928194 -6.95312762 8.92969143 -9 12 C-12.07921132 12.25660094 -14.21136993 12.39431504 -17 11 C-15.70952092 2.90054579 -15.70952092 2.90054579 -13.375 -0.0625 C-8.93771626 -1.81405937 -4.51706439 -1.50568813 0 0 Z " fill="#82CBEA" transform="translate(117,101)"/>
<path d="M0 0 C1.30904659 3.68484695 0.68940214 6.28864228 -0.22265625 10.0390625 C-0.51116455 11.24780029 -0.79967285 12.45653809 -1.09692383 13.7019043 C-1.41855797 15.00965812 -1.74042175 16.31735548 -2.0625 17.625 C-2.38592531 18.96437886 -2.70842537 20.30398146 -3.0300293 21.64379883 C-3.5247423 23.70434106 -4.02013018 25.7646931 -4.51899719 27.82423401 C-5.63233799 32.42753695 -6.69794416 37.03890111 -7.734375 41.66015625 C-8.00113037 42.84593262 -8.26788574 44.03170898 -8.54272461 45.25341797 C-9.04753577 47.50545534 -9.54848605 49.75836239 -10.04516602 52.01220703 C-10.27389404 53.0226709 -10.50262207 54.03313477 -10.73828125 55.07421875 C-10.93462158 55.95682373 -11.13096191 56.83942871 -11.33325195 57.7487793 C-12 60 -12 60 -14 63 C-15.87939453 63.34057617 -15.87939453 63.34057617 -18.1328125 63.29296875 C-18.93847656 63.28330078 -19.74414062 63.27363281 -20.57421875 63.26367188 C-21.41597656 63.23853516 -22.25773437 63.21339844 -23.125 63.1875 C-24.39923828 63.16719727 -24.39923828 63.16719727 -25.69921875 63.14648438 C-27.79974837 63.11108219 -29.89995293 63.05727401 -32 63 C-32.5064814 60.29273634 -33.005351 57.58442876 -33.5 54.875 C-33.64308594 54.11445312 -33.78617187 53.35390625 -33.93359375 52.5703125 C-34.70312456 48.31957086 -35.16644376 44.34140803 -35 40 C-32.99007686 43.21587702 -32.66704156 46.24406698 -32.28515625 49.97265625 C-31.89072182 52.77692296 -30.93021678 55.33337855 -30 58 C-30 58.99 -30 59.98 -30 61 C-24.72 61 -19.44 61 -14 61 C-13.896875 59.515 -13.79375 58.03 -13.6875 56.5 C-13.45377424 53.13434899 -12.8932104 50.74133185 -11.59375 47.59375 C-9.13426645 41.338895 -8.64512759 34.6239434 -7.8125 28 C-7.63433584 26.63920842 -7.45530628 25.27852986 -7.27539062 23.91796875 C-6.84175833 20.6129875 -6.4168942 17.30712711 -6 14 C-5.34 14 -4.68 14 -4 14 C-4.020625 13.0925 -4.04125 12.185 -4.0625 11.25 C-4 8 -4 8 -3 4 C-12.57 4 -22.14 4 -32 4 C-31.67 3.34 -31.34 2.68 -31 2 C-21.11577015 -1.04419246 -10.21415778 -0.19231678 0 0 Z " fill="#3C718F" transform="translate(135,0)"/>
<path d="M0 0 C0.34716797 2.68603516 0.34716797 2.68603516 0.4921875 6.2890625 C0.55566572 7.62656941 0.61965195 8.96405228 0.68408203 10.30151367 C0.71487854 11.00746674 0.74567505 11.7134198 0.77740479 12.44076538 C1.35565626 25.38235173 2.66998643 37.8784943 5.1953125 50.60546875 C5.82361965 53.7901757 6.20258701 56.73834917 6 60 C3.94587752 61.03758749 1.88130395 62.0545034 -0.1875 63.0625 C-1.33605469 63.63097656 -2.48460938 64.19945313 -3.66796875 64.78515625 C-7.11316577 66.04125973 -8.57908399 66.12742053 -12 65 C-12.33 64.01 -12.66 63.02 -13 62 C-12.36191406 61.93941406 -11.72382812 61.87882812 -11.06640625 61.81640625 C-10.24011719 61.73261719 -9.41382812 61.64882812 -8.5625 61.5625 C-7.73878906 61.48128906 -6.91507813 61.40007812 -6.06640625 61.31640625 C-4.01337975 61.21069185 -4.01337975 61.21069185 -3 60 C-1.33382885 59.95936168 0.33388095 59.957279 2 60 C2 59.34 2 58.68 2 58 C2.66 58 3.32 58 4 58 C3.71125 56.989375 3.4225 55.97875 3.125 54.9375 C2.75 53.625 2.375 52.3125 2 51 C1.67451172 49.96174072 1.34902344 48.92348145 1.01367188 47.85375977 C-0.01690769 43.93572063 -0.52724103 40.14609008 -0.8515625 36.125 C-0.91532074 35.39684082 -0.97907898 34.66868164 -1.04476929 33.91845703 C-1.17730244 32.38927564 -1.30654076 30.85980539 -1.43261719 29.33007812 C-1.62452199 27.0057895 -1.82700965 24.68260893 -2.03125 22.359375 C-2.15947629 20.86463657 -2.28710062 19.36984636 -2.4140625 17.875 C-2.47340973 17.18937988 -2.53275696 16.50375977 -2.59390259 15.79736328 C-2.94255063 11.52057907 -3.05223167 7.2899611 -3 3 C-5.64 3.66 -8.28 4.32 -11 5 C-11 5.66 -11 6.32 -11 7 C-11.89203125 7.40992188 -12.7840625 7.81984375 -13.703125 8.2421875 C-14.87359375 8.78101563 -16.0440625 9.31984375 -17.25 9.875 C-18.99023438 10.67550781 -18.99023438 10.67550781 -20.765625 11.4921875 C-23.19853869 12.6263719 -25.60910636 13.78088096 -28 15 C-23.19982985 8.54977136 -8.27961546 -4.13980773 0 0 Z " fill="#5385A2" transform="translate(94,4)"/>
<path d="M0 0 C4.0119958 8.53880523 7.54530754 17.22649951 11 26 C11.37253906 26.90363281 11.74507812 27.80726563 12.12890625 28.73828125 C14.12060971 33.90956513 14.47136356 38.84902879 12.90234375 44.140625 C11.16855025 47.7132904 8.57341974 49.42667616 5 51 C-0.9484016 52.66834759 -6.84297306 53.27364564 -13 53 C-14.04069343 49.87791972 -14.20111824 47.49434421 -14.31640625 44.21484375 C-14.3793689 42.47025879 -14.3793689 42.47025879 -14.44360352 40.69042969 C-14.48283936 39.45196289 -14.5220752 38.21349609 -14.5625 36.9375 C-14.6049585 35.68227539 -14.64741699 34.42705078 -14.69116211 33.13378906 C-15.00058371 23.41907154 -15.11569586 13.71845251 -15 4 C-13.44219668 3.32243118 -11.87849904 2.65840543 -10.3125 2 C-9.44238281 1.62875 -8.57226562 1.2575 -7.67578125 0.875 C-4.9427998 -0.01870488 -2.85299066 -0.16449676 0 0 Z M-13 5 C-13.02472528 10.90820002 -13.04287204 16.8163699 -13.05493164 22.72460938 C-13.05995931 24.73438034 -13.06678233 26.74414764 -13.07543945 28.75390625 C-13.08757351 31.64323835 -13.09324399 34.53252207 -13.09765625 37.421875 C-13.10281754 38.31992859 -13.10797882 39.21798218 -13.11329651 40.14324951 C-13.11337204 40.98381897 -13.11344757 41.82438843 -13.11352539 42.69042969 C-13.115746 43.42767273 -13.11796661 44.16491577 -13.12025452 44.92449951 C-13.04428904 47.34988235 -13.04428904 47.34988235 -12 51 C-8.04 51 -4.08 51 0 51 C0 50.34 0 49.68 0 49 C0.886875 49.103125 1.77375 49.20625 2.6875 49.3125 C7.01277976 48.90445474 8.20885676 47.18987799 11 44 C11.33 44 11.66 44 12 44 C12 40.37 12 36.74 12 33 C11.34 33 10.68 33 10 33 C10 32.01 10 31.02 10 30 C9.34 30 8.68 30 8 30 C8.04125 29.278125 8.0825 28.55625 8.125 27.8125 C7.99078695 24.79270631 7.24829381 22.73064271 6 20 C5.34 20 4.68 20 4 20 C3.9175 18.88625 3.835 17.7725 3.75 16.625 C3.12080974 11.3848781 1.11369129 6.79758766 -1 2 C-5.92503607 1.64821171 -8.68796574 2.69904054 -13 5 Z " fill="#66AFCB" transform="translate(125,147)"/>
<path d="M0 0 C1.24523437 0.02707031 2.49046875 0.05414063 3.7734375 0.08203125 C4.71445313 0.11683594 5.65546875 0.15164062 6.625 0.1875 C8.28553782 3.50857564 6.34009298 6.75857891 5.25 10.125 C3.61102481 15.32863637 2.34614822 20.07065241 2.125 25.5625 C1.88621795 29.93353811 1.88621795 29.93353811 -0.625 32.375 C-5.78535857 33.89965139 -5.78535857 33.89965139 -8.375 33.1875 C-13.41999705 27.54546188 -15.99604744 19.91386687 -16.75 12.5 C-16.31557036 8.66253816 -15.55341859 6.38251394 -13.375 3.1875 C-8.78927634 0.32142271 -5.35851766 -0.15165616 0 0 Z M-14.375 8.1875 C-13.61949972 12.77752056 -12.8447887 17.36305907 -12 21.9375 C-11.8865625 22.60910156 -11.773125 23.28070313 -11.65625 23.97265625 C-11.3248878 25.73169604 -10.85747872 27.4637726 -10.375 29.1875 C-7.12422159 31.84864309 -7.12422159 31.84864309 -1.375 30.1875 C-1.045 23.9175 -0.715 17.6475 -0.375 11.1875 C0.615 10.8575 1.605 10.5275 2.625 10.1875 C2.625 7.8775 2.625 5.5675 2.625 3.1875 C-4.84708622 2.51095296 -8.66880741 3.2255934 -14.375 8.1875 Z " fill="#65C7DF" transform="translate(109.375,66.8125)"/>
<path d="M0 0 C-0.50740537 4.5420965 -2.18644005 6.87089843 -5.125 10.3125 C-5.93324219 11.26382812 -6.74148437 12.21515625 -7.57421875 13.1953125 C-8.37472656 14.12085937 -9.17523438 15.04640625 -10 16 C-10.68707031 16.82242187 -11.37414062 17.64484375 -12.08203125 18.4921875 C-15.56320405 22.61096458 -15.56320405 22.61096458 -17 24 C-17.66 24 -18.32 24 -19 24 C-19.33 24.99 -19.66 25.98 -20 27 C-20.33 26.34 -20.66 25.68 -21 25 C-20.0625 22.875 -20.0625 22.875 -19 21 C-18.34 21 -17.68 21 -17 21 C-16.67 18.69 -16.34 16.38 -16 14 C-15.01 13.67 -14.02 13.34 -13 13 C-11.78130071 10.49552484 -11.78130071 10.49552484 -11 8 C-10.071875 8.309375 -10.071875 8.309375 -9.125 8.625 C-8.42375 8.74875 -7.7225 8.8725 -7 9 C-4.71271266 7.16116119 -4.71271266 7.16116119 -4.875 4.375 C-4.91625 3.59125 -4.9575 2.8075 -5 2 C-10.673142 -0.45417612 -15.81839396 -2.46246904 -22 -3 C-22 -3.66 -22 -4.32 -22 -5 C-25.25100777 -4.9189487 -28.50016335 -4.80612351 -31.75 -4.6875 C-32.67039063 -4.66494141 -33.59078125 -4.64238281 -34.5390625 -4.61914062 C-35.42851562 -4.58369141 -36.31796875 -4.54824219 -37.234375 -4.51171875 C-38.45979004 -4.47244263 -38.45979004 -4.47244263 -39.70996094 -4.43237305 C-42.46407075 -3.91238067 -43.84058182 -2.73497883 -46 -1 C-46.66 -1 -47.32 -1 -48 -1 C-47.9375 -2.8125 -47.9375 -2.8125 -47 -5 C-31.94070751 -12.80500531 -14.444017 -6.40495422 0 0 Z " fill="#5E8CA8" transform="translate(189,12)"/>
<path d="M0 0 C1.18118408 0.06562134 1.18118408 0.06562134 2.38623047 0.13256836 C11.37362264 0.71454319 20.20142712 2.18801487 29.0625 3.75 C29.0625 4.08 29.0625 4.41 29.0625 4.75 C27.47926312 4.777193 25.89588938 4.79648306 24.3125 4.8125 C22.98992188 4.82990234 22.98992188 4.82990234 21.640625 4.84765625 C19.2806162 4.75826198 17.31751476 4.41912821 15.0625 3.75 C15.0625 4.08 15.0625 4.41 15.0625 4.75 C8.3125 4.875 8.3125 4.875 6.0625 3.75 C3.69126754 3.51970044 1.31508057 3.33880058 -1.0625 3.1875 C-2.34382813 3.10371094 -3.62515625 3.01992187 -4.9453125 2.93359375 C-6.42644531 2.84271484 -6.42644531 2.84271484 -7.9375 2.75 C-7.82256243 4.64646998 -7.69510358 6.54218332 -7.5625 8.4375 C-7.49289062 9.49324219 -7.42328125 10.54898438 -7.3515625 11.63671875 C-6.94569016 14.68841927 -6.31097089 17.00305822 -4.9375 19.75 C-2.93733534 20.95882096 -2.93733534 20.95882096 -0.9375 21.75 C-0.6075 22.41 -0.2775 23.07 0.0625 23.75 C9.6325 23.75 19.2025 23.75 29.0625 23.75 C29.0625 24.08 29.0625 24.41 29.0625 24.75 C25.91841216 25.26139597 22.77201427 25.75696036 19.625 26.25 C18.74650391 26.39308594 17.86800781 26.53617188 16.96289062 26.68359375 C10.17010378 27.73635038 3.49190902 28.5911758 -3.25 26.9375 C-7.56981592 23.42137076 -8.80258464 19.10497418 -9.9375 13.75 C-10.22971387 9.39035754 -10.18706208 5.11040407 -9.9375 0.75 C-6.77270183 -0.83239909 -3.45154539 -0.19981104 0 0 Z " fill="#64A4C3" transform="translate(21.9375,100.25)"/>
<path d="M0 0 C2.74859776 2.3990651 3.95761957 4.78607027 5.375 8.125 C6.99713035 11.86875816 8.74817745 15.332782 10.875 18.8125 C12.59006749 21.81790039 13.00377423 22.79619169 12.9375 26.375 C12 29 12 29 10 32 C5.48766744 31.43427472 1.94451129 30.26914371 -2.125 28.25 C-3.13820313 27.76015625 -4.15140625 27.2703125 -5.1953125 26.765625 C-8.25580184 24.83896597 -10.00483819 23.00224349 -12 20 C-12.29265211 13.56165347 -7.61212314 7.92341243 -3.4921875 3.3125 C-2.36091439 2.17476247 -1.18560981 1.08099718 0 0 Z M-3.5703125 7.28515625 C-7.18394639 11.41632063 -8.88822755 14.29960499 -9 20 C-8.67 20.66 -8.34 21.32 -8 22 C-7.34 22 -6.68 22 -6 22 C-6 22.99 -6 23.98 -6 25 C-2.7 25.33 0.6 25.66 4 26 C4.33 26.99 4.66 27.98 5 29 C6.32 28.67 7.64 28.34 9 28 C9.20970559 23.85906302 9.20970559 23.85906302 8 20 C7.34 20 6.68 20 6 20 C5.67 17.36 5.34 14.72 5 12 C4.34 12 3.68 12 3 12 C3 11.01 3 10.02 3 9 C2.34 9 1.68 9 1 9 C1 8.01 1 7.02 1 6 C-1.9512583 5.68332869 -1.9512583 5.68332869 -3.5703125 7.28515625 Z " fill="#66C6DC" transform="translate(85,77)"/>
<path d="M0 0 C0 0.99 0 1.98 0 3 C4.29 3.66 8.58 4.32 13 5 C13 5.33 13 5.66 13 6 C6.07 5.505 6.07 5.505 -1 5 C-0.67 7.31 -0.34 9.62 0 12 C-2 9 -2 9 -2 5 C-4.90802461 7.21928194 -6.95312762 8.92969143 -9 12 C-12.07921132 12.25660094 -14.21136993 12.39431504 -17 11 C-15.70952092 2.90054579 -15.70952092 2.90054579 -13.375 -0.0625 C-8.93771626 -1.81405937 -4.51706439 -1.50568813 0 0 Z " fill="#A7D8EB" transform="translate(117,101)"/>
<path d="M0 0 C4.17115799 0.61340559 7.50809371 1.59446456 11 4 C12.30338187 6.62319293 12.94503199 9.06837303 13 12 C11.625 14 11.625 14 10 15 C11.134375 15.12375 12.26875 15.2475 13.4375 15.375 C14.613125 15.58125 15.78875 15.7875 17 16 C17.33 16.66 17.66 17.32 18 18 C10.90673679 19.72330907 4.29031024 20.2494783 -3 20 C-2.34 22.31 -1.68 24.62 -1 27 C-3.62187494 25.95125002 -4.79371361 25.35068687 -6.25 22.875 C-6.4975 22.25625 -6.745 21.6375 -7 21 C-5.35 20.01 -3.7 19.02 -2 18 C-2.62648438 17.76925781 -3.25296875 17.53851563 -3.8984375 17.30078125 C-10.65694683 14.60377358 -10.65694683 14.60377358 -12.5625 11.25 C-12.706875 10.5075 -12.85125 9.765 -13 9 C-8 12 -8 12 -5.75 13.6875 C-1.83886854 15.55417638 1.73875893 15.25066124 6 15 C6 14.34 6 13.68 6 13 C6.99 13 7.98 13 9 13 C9 10.03 9 7.06 9 4 C8.071875 3.855625 7.14375 3.71125 6.1875 3.5625 C3 3 3 3 0 2 C0 1.34 0 0.68 0 0 Z " fill="#8AD5E6" transform="translate(83,108)"/>
<path d="M0 0 C0.66 0.33 1.32 0.66 2 1 C1.360625 1.763125 0.72125 2.52625 0.0625 3.3125 C-2.14232781 5.88246713 -2.14232781 5.88246713 -3 9 C-5.26777654 10.1469716 -7.58309156 10.96787049 -9.96875 11.83984375 C-12.14324977 12.82390668 -12.14324977 12.82390668 -12.91015625 14.93359375 C-13.04127628 17.9493544 -11.48929206 19.51309652 -9.5390625 21.67578125 C-7.2606699 23.63612412 -4.88411318 24.29499456 -2 25 C-1.34 25.33 -0.68 25.66 0 26 C4.03357544 26.33427279 4.03357544 26.33427279 8 26 C9.91256712 24.11922127 9.91256712 24.11922127 11 22 C11.66 22 12.32 22 13 22 C12.69389719 24.85695952 11.93065009 26.08277248 10.0625 28.3125 C5.48075336 30.8371359 1.96944281 30.33360753 -3 29 C-9.01880389 26.4682809 -14.4765811 23.70458298 -18 18 C-16.53819417 14.51950993 -14.66409062 12.56922054 -11.8125 10.125 C-11.01585937 9.43664062 -10.21921875 8.74828125 -9.3984375 8.0390625 C-8.60695313 7.36617187 -7.81546875 6.69328125 -7 6 C-6.29101562 5.38898438 -5.58203125 4.77796875 -4.8515625 4.1484375 C-3.23928437 2.75990409 -1.62039152 1.37905661 0 0 Z " fill="#5BADCA" transform="translate(57,154)"/>
<path d="M0 0 C4.15426219 0.61092091 7.4375513 1.75410843 11 4 C12.875 7.1875 12.875 7.1875 14 10 C12.02 10 10.04 10 8 10 C8 9.34 8 8.68 8 8 C7.4225 8.495 6.845 8.99 6.25 9.5 C4 11 4 11 0 11 C0 14.3 0 17.6 0 21 C-0.99 21.33 -1.98 21.66 -3 22 C-4.91957923 14.86106899 -5.6858888 9.79473097 -1.9375 3.125 C-1.298125 2.09375 -0.65875 1.0625 0 0 Z " fill="#2672AC" transform="translate(22,62)"/>
<path d="M0 0 C9.1860289 0.72047285 19.95186288 2.71382365 27 9 C30.42910351 15.77457035 30.0250281 24.16728622 28.1015625 31.359375 C27.15308358 33.95592014 26.14904069 36.48647349 25 39 C23.35 38.67 21.7 38.34 20 38 C20 37.34 20 36.68 20 36 C21.32 36 22.64 36 24 36 C24.33479485 32.37513341 24.66758816 28.75008583 25 25.125 C25.09539062 24.09246094 25.19078125 23.05992187 25.2890625 21.99609375 C25.37929687 21.00996094 25.46953125 20.02382812 25.5625 19.0078125 C25.64628906 18.09660645 25.73007813 17.18540039 25.81640625 16.24658203 C26.02714995 14.04345274 26.02714995 14.04345274 26 12 C25.01 12 24.02 12 23 12 C21 9 21 9 20 6 C19.360625 6.185625 18.72125 6.37125 18.0625 6.5625 C17.381875 6.706875 16.70125 6.85125 16 7 C15.67 6.67 15.34 6.34 15 6 C13.41962235 5.84196224 11.83520326 5.72348896 10.25 5.625 C6.14365653 5.25437015 3.2595473 4.71628942 0 2 C0 1.34 0 0.68 0 0 Z " fill="#64B1CC" transform="translate(149,121)"/>
<path d="M0 0 C1.8125 1.5 1.8125 1.5 3 3 C2.67 3.66 2.34 4.32 2 5 C1.505 4.505 1.505 4.505 1 4 C-8.397897 3.66120434 -16.42191191 5.85585492 -25.20776367 8.83276367 C-30.86312094 10.72597092 -36.0052213 11.80344988 -42 12 C-42 12.66 -42 13.32 -42 14 C-42.99 14.495 -42.99 14.495 -44 15 C-44.40729228 17.32156597 -44.74438677 19.6568787 -45 22 C-45.66 21.67 -46.32 21.34 -47 21 C-47.73075648 18.6859378 -48.40138258 16.35171131 -49 14 C-42.0336085 10.67949776 -34.91390967 8.20022038 -27.5625 5.875 C-26.49451172 5.52824219 -25.42652344 5.18148437 -24.32617188 4.82421875 C-7.72949882 -0.46806185 -7.72949882 -0.46806185 0 0 Z " fill="#65B2CE" transform="translate(67,125)"/>
<path d="M0 0 C1.1446875 0.3403125 1.1446875 0.3403125 2.3125 0.6875 C4.08484615 5.79602714 4.61170852 9.27413118 3.3125 14.6875 C2.3225 15.1825 2.3225 15.1825 1.3125 15.6875 C0.66036708 17.71213255 0.66036708 17.71213255 0.3125 19.6875 C-1.0075 19.6875 -2.3275 19.6875 -3.6875 19.6875 C-4.02598652 17.79257994 -4.35806911 15.89651534 -4.6875 14 C-4.873125 12.94425781 -5.05875 11.88851562 -5.25 10.80078125 C-6.26254189 3.59546087 -6.26254189 3.59546087 -4.5 0.8125 C-2.6875 -0.3125 -2.6875 -0.3125 0 0 Z " fill="#59BDDE" transform="translate(125.6875,119.3125)"/>
<path d="M0 0 C1.28402762 3.65771675 0.72394456 6.31186747 -0.109375 10.05078125 C-0.36976563 11.22447266 -0.63015625 12.39816406 -0.8984375 13.60742188 C-1.17945312 14.83009766 -1.46046875 16.05277344 -1.75 17.3125 C-2.01554687 18.52357422 -2.28109375 19.73464844 -2.5546875 20.98242188 C-3.93597728 27.10770446 -5.49050318 32.14450741 -8 38 C-13.94 38 -19.88 38 -26 38 C-26.495 35.31875 -26.99 32.6375 -27.5 29.875 C-27.65662109 29.04210449 -27.81324219 28.20920898 -27.97460938 27.35107422 C-28.72749237 23.17735378 -29.16338936 19.26173904 -29 15 C-26.99007686 18.21587702 -26.66704156 21.24406698 -26.28515625 24.97265625 C-25.89072182 27.77692296 -24.93021678 30.33337855 -24 33 C-24 33.99 -24 34.98 -24 36 C-18.72 36 -13.44 36 -8 36 C-7.896875 34.515 -7.79375 33.03 -7.6875 31.5 C-7.28983465 27.42677058 -6.3646743 24.21176561 -4.765625 20.42578125 C-3.00515943 14.84797963 -2.64202276 8.80086443 -2 3 C-1.34 3 -0.68 3 0 3 C0 2.01 0 1.02 0 0 Z " fill="#608CA4" transform="translate(129,25)"/>
<path d="M0 0 C0.99 0.33 1.98 0.66 3 1 C3.33 3.31 3.66 5.62 4 8 C4.66 8 5.32 8 6 8 C6 9.32 6 10.64 6 12 C6.66 12 7.32 12 8 12 C8 12.66 8 13.32 8 14 C11.92438786 15.66489182 15.89100419 16.87204037 20 18 C20 17.01 20 16.02 20 15 C21.98 14.34 23.96 13.68 26 13 C24.62380176 18.19897112 21.33136901 21.08143805 17 24 C14.0625 24.875 14.0625 24.875 12 25 C8.73034566 20.04597827 5.86783215 14.97707157 3.1875 9.6875 C2.87353271 9.07696777 2.55956543 8.46643555 2.23608398 7.83740234 C0.82746309 5.01703635 0 3.19780388 0 0 Z " fill="#46A6CE" transform="translate(137,162)"/>
<path d="M0 0 C2.31074207 1.80840684 2.98576618 2.95072909 3.8125 5.8125 C4.03042829 9.51728099 3.60081241 11.65284677 2 15 C-0.375 17.4375 -0.375 17.4375 -3 19 C-4.32 18.67 -5.64 18.34 -7 18 C-7 15.03 -7 12.06 -7 9 C-7.66 9 -8.32 9 -9 9 C-9.1546875 10.5778125 -9.1546875 10.5778125 -9.3125 12.1875 C-9.98426465 15.91274033 -10.72142199 18.02032107 -13 21 C-13.99 21.33 -14.98 21.66 -16 22 C-16 21.01 -16 20.02 -16 19 C-15.01 19 -14.02 19 -13 19 C-12.855625 18.13375 -12.71125 17.2675 -12.5625 16.375 C-12.04166667 13.25 -11.52083333 10.125 -11 7 C-15.455 7.495 -15.455 7.495 -20 8 C-19.67 7.01 -19.34 6.02 -19 5 C-12.375 3.875 -12.375 3.875 -9 5 C-8.67 3.68 -8.34 2.36 -8 1 C-6.13216954 6.48675196 -5.7641604 11.22192976 -6 17 C-4.68 17 -3.36 17 -2 17 C-1.67 15.35 -1.34 13.7 -1 12 C-0.34 12 0.32 12 1 12 C1.08159574 7.83861737 0.98248524 4.0527516 0 0 Z " fill="#97D0E2" transform="translate(128,122)"/>
<path d="M0 0 C0 10.56 0 21.12 0 32 C-0.33 32 -0.66 32 -1 32 C-1.33865898 28.47965794 -1.66996095 24.95865982 -2 21.4375 C-2.09539062 20.44685547 -2.19078125 19.45621094 -2.2890625 18.43554688 C-2.77008121 13.26459572 -3.11653634 8.19315048 -3 3 C-5.64 3.66 -8.28 4.32 -11 5 C-11 5.66 -11 6.32 -11 7 C-11.89203125 7.40992188 -12.7840625 7.81984375 -13.703125 8.2421875 C-14.87359375 8.78101563 -16.0440625 9.31984375 -17.25 9.875 C-18.99023438 10.67550781 -18.99023438 10.67550781 -20.765625 11.4921875 C-23.19853869 12.6263719 -25.60910636 13.78088096 -28 15 C-23.19982985 8.54977136 -8.27961546 -4.13980773 0 0 Z " fill="#427492" transform="translate(94,4)"/>
<path d="M0 0 C0.81045614 2.31413264 1.2198895 3.49392266 0.22265625 5.7890625 C-0.16019531 6.39492187 -0.54304688 7.00078125 -0.9375 7.625 C-3.55190946 12.38663922 -3.39191017 16.68743995 -3 22 C-1.39620659 22.05416188 0.20811406 22.09286638 1.8125 22.125 C2.70582031 22.14820312 3.59914063 22.17140625 4.51953125 22.1953125 C7.25402714 22.18285827 7.25402714 22.18285827 10 20 C9.979375 20.969375 9.95875 21.93875 9.9375 22.9375 C9.64381501 25.87465895 9.64381501 25.87465895 11 27 C13.18292774 27.23481693 15.37203174 27.41363323 17.5625 27.5625 C18.76003906 27.64628906 19.95757812 27.73007813 21.19140625 27.81640625 C22.58166016 27.90728516 22.58166016 27.90728516 24 28 C23.67 28.99 23.34 29.98 23 31 C22.01 30.67 21.02 30.34 20 30 C19.34 30.33 18.68 30.66 18 31 C13.34591099 31.4136968 10.74760524 30.81070393 7 28 C6.34 27.01 5.68 26.02 5 25 C2.59519398 24.67350241 2.59519398 24.67350241 -0.0625 24.875 C-1.70733778 24.94579646 -3.35364957 24.99419277 -5 25 C-6 24 -6 24 -6.0546875 21.19140625 C-5.64926088 13.0035513 -4.35794792 6.97914907 0 0 Z " fill="#82D1E1" transform="translate(118,74)"/>
<path d="M0 0 C0.66 1.65 1.32 3.3 2 5 C-0.71991308 7.55991819 -2.30130997 8.91444612 -6.0625 9.375 C-8.97573327 9.00309788 -10.65865876 8.75600593 -13 7 C-14.25 4.375 -14.25 4.375 -15 2 C-12.10314264 -0.89685736 -3.85727068 -0.09643177 0 0 Z " fill="#ADDCEC" transform="translate(114,115)"/>
<path d="M0 0 C4.1095755 4.1095755 4.98045337 8.36439579 6 14 C5.6875 17.6875 5.6875 17.6875 5 20 C-3.54076441 18.32234985 -11.72564036 15.65997819 -20 13 C-19.34 12.34 -18.68 11.68 -18 11 C-13.26285411 11.4427896 -8.70286003 12.80741097 -4.125 14.0625 C-1.77375 14.701875 0.5775 15.34125 3 16 C2.01 10.72 1.02 5.44 0 0 Z " fill="#6BCBDF" transform="translate(174,107)"/>
<path d="M0 0 C0 0.66 0 1.32 0 2 C0.99 2 1.98 2 3 2 C2.67 2.66 2.34 3.32 2 4 C1.21496094 3.51273437 1.21496094 3.51273437 0.4140625 3.015625 C-2.70548734 1.70319303 -5.24933013 1.73475996 -8.625 1.75 C-9.77226562 1.74484375 -10.91953125 1.7396875 -12.1015625 1.734375 C-15.12642176 1.70000565 -15.12642176 1.70000565 -17 4 C-19.6015625 4.6328125 -19.6015625 4.6328125 -22.625 5.125 C-23.62789062 5.29257813 -24.63078125 5.46015625 -25.6640625 5.6328125 C-26.43492187 5.75398438 -27.20578125 5.87515625 -28 6 C-26.21190271 10.33970917 -26.21190271 10.33970917 -22.8125 13.375 C-22.214375 13.58125 -21.61625 13.7875 -21 14 C-21 14.66 -21 15.32 -21 16 C-19.02 16 -17.04 16 -15 16 C-14.67 16.66 -14.34 17.32 -14 18 C-24.92154155 16.71848812 -24.92154155 16.71848812 -28.1875 13.5 C-30 11 -30 11 -30 9 C-30.66 9 -31.32 9 -32 9 C-31.83984375 7.171875 -31.83984375 7.171875 -31 5 C-21.46103889 -1.13334217 -10.84781283 -0.54786933 0 0 Z " fill="#3CB7D6" transform="translate(166,101)"/>
<path d="M0 0 C2.37816498 0.83831419 4.55700119 1.82431023 6.79296875 2.9921875 C7.58058594 3.38921875 8.36820313 3.78625 9.1796875 4.1953125 C11.10546875 5.7421875 11.10546875 5.7421875 11.99609375 8.17578125 C12.17172191 12.2967705 10.31041357 14.3345455 8.10546875 17.7421875 C7.77546875 17.7421875 7.44546875 17.7421875 7.10546875 17.7421875 C7.00568754 14.24984506 7.32703937 11.14781602 8.10546875 7.7421875 C7.44546875 7.4121875 6.78546875 7.0821875 6.10546875 6.7421875 C6.10546875 6.0821875 6.10546875 5.4221875 6.10546875 4.7421875 C4.96078125 4.525625 4.96078125 4.525625 3.79296875 4.3046875 C1.10546875 3.7421875 1.10546875 3.7421875 -1.89453125 2.7421875 C-2.10078125 3.3403125 -2.30703125 3.9384375 -2.51953125 4.5546875 C-4.43002334 7.59410673 -6.6085735 8.44149589 -9.89453125 9.7421875 C-10.55453125 9.4121875 -11.21453125 9.0821875 -11.89453125 8.7421875 C-5.08132724 -0.69147958 -5.08132724 -0.69147958 0 0 Z " fill="#7FC0D6" transform="translate(76.89453125,140.2578125)"/>
<path d="M0 0 C2.97 0.33 5.94 0.66 9 1 C5 3 5 3 1 3 C0.91527806 8.72537527 0.91527806 8.72537527 3.40234375 13.640625 C4.89811828 14.80908887 6.4465992 15.90931433 8 17 C8 17.66 8 18.32 8 19 C9.65 18.34 11.3 17.68 13 17 C12.67 17.99 12.34 18.98 12 20 C12.515625 20.4125 13.03125 20.825 13.5625 21.25 C14.2740625 22.11625 14.2740625 22.11625 15 23 C14.58984375 25.109375 14.58984375 25.109375 14 27 C13.33613281 26.39671875 12.67226562 25.7934375 11.98828125 25.171875 C11.10527344 24.37265625 10.22226563 23.5734375 9.3125 22.75 C8.44238281 21.96109375 7.57226562 21.1721875 6.67578125 20.359375 C4.06643699 17.9601939 4.06643699 17.9601939 1.19140625 16.0859375 C-1 14 -1 14 -1.5234375 11.0546875 C-1.47445312 10.00539062 -1.42546875 8.95609375 -1.375 7.875 C-1.34148437 6.82054688 -1.30796875 5.76609375 -1.2734375 4.6796875 C-1 2 -1 2 0 0 Z " fill="#54A5C2" transform="translate(140,119)"/>
<path d="M0 0 C0.33 0 0.66 0 1 0 C1.33 2.97 1.66 5.94 2 9 C6.18730624 10.04682656 9.97856931 10.11155353 14.25 10.0625 C14.99507812 10.05798828 15.74015625 10.05347656 16.5078125 10.04882812 C18.3385764 10.03709246 20.16929873 10.0191585 22 10 C22 9.34 22 8.68 22 8 C22.66 8 23.32 8 24 8 C23.625 10.4375 23.625 10.4375 23 13 C16.34892537 16.32553732 6.88340696 13.78821733 0.08203125 11.94921875 C-0.60503906 11.63597656 -1.29210937 11.32273438 -2 11 C-3.13643966 7.59068103 -2.86747764 6.99664544 -1.5625 3.8125 C-1.13130859 2.73935547 -1.13130859 2.73935547 -0.69140625 1.64453125 C-0.46324219 1.10183594 -0.23507813 0.55914062 0 0 Z " fill="#59A7CA" transform="translate(76,184)"/>
<path d="M0 0 C3.89074928 2.37722313 4.94930151 4.6891825 6.4375 8.9375 C8.07684952 13.49012079 9.81018878 17.94194438 11.75 22.375 C14.4700773 28.87581368 15.5309408 34.02571412 14 41 C13.67 41 13.34 41 13 41 C13 37.37 13 33.74 13 30 C12.34 30 11.68 30 11 30 C11 29.01 11 28.02 11 27 C10.34 27 9.68 27 9 27 C7.68373308 23.38026598 7 20.90432869 7 17 C6.34 17 5.68 17 5 17 C4.35284867 14.9170757 3.70732834 12.83364461 3.0625 10.75 C2.70285156 9.58984375 2.34320313 8.4296875 1.97265625 7.234375 C1.24933363 4.82910942 0.57457589 2.44345956 0 0 Z " fill="#61AFCE" transform="translate(124,150)"/>
<path d="M0 0 C2.75220373 0.86911697 4.5656698 1.4472161 6.375 3.75 C7.22428999 6.80744395 6.77944836 8.9471606 6 12 C5.01 13.485 5.01 13.485 4 15 C-2.02770138 14.52412884 -6.76678289 11.80277043 -12 9 C-12 8.67 -12 8.34 -12 8 C-10.35333797 8.1135629 -8.70763918 8.24117381 -7.0625 8.375 C-6.14597656 8.44460937 -5.22945313 8.51421875 -4.28515625 8.5859375 C-3.15400391 8.79089844 -3.15400391 8.79089844 -2 9 C-1.67 9.66 -1.34 10.32 -1 11 C-0.01 10.67 0.98 10.34 2 10 C2 7.69 2 5.38 2 3 C1.34 3 0.68 3 0 3 C0 2.01 0 1.02 0 0 Z " fill="#63C6DF" transform="translate(91,94)"/>
<path d="M0 0 C5.84282731 4.44054875 10.19966728 9.11459409 13 16 C13.44109168 19.4080136 13.3916829 22.59090812 13 26 C11.02 26.99 11.02 26.99 9 28 C9.03480469 27.35933594 9.06960937 26.71867187 9.10546875 26.05859375 C9.2912257 20.1232169 8.73889103 16.26709813 6 11 C5.608125 10.195625 5.21625 9.39125 4.8125 8.5625 C4.544375 8.046875 4.27625 7.53125 4 7 C3.34 7 2.68 7 2 7 C1.34 4.69 0.68 2.38 0 0 Z " fill="#50A5C8" transform="translate(151,148)"/>
<path d="M0 0 C0.33 2.97 0.66 5.94 1 9 C0.67 8.34 0.34 7.68 0 7 C-1.98 7 -3.96 7 -6 7 C-6 7.99 -6 8.98 -6 10 C-8.97 11.65 -11.94 13.3 -15 15 C-12.79063947 7.9300463 -7.89089971 0 0 0 Z " fill="#176096" transform="translate(51,27)"/>
<path d="M0 0 C0.66 0 1.32 0 2 0 C1.84080078 0.5480127 1.68160156 1.09602539 1.51757812 1.66064453 C0.93597142 4.28939711 0.80489151 6.73868181 0.71875 9.4296875 C0.66267578 10.99396484 0.66267578 10.99396484 0.60546875 12.58984375 C0.57066406 13.67394531 0.53585938 14.75804687 0.5 15.875 C0.0811433 28.8285312 0.0811433 28.8285312 -1 34 C-1.33 34 -1.66 34 -2 34 C-2.65839696 27.02804645 -3.11133341 20.06516281 -3.25 13.0625 C-3.27578125 11.85722656 -3.3015625 10.65195313 -3.328125 9.41015625 C-2.96668573 5.6537696 -1.88092669 3.24212364 0 0 Z " fill="#5888A5" transform="translate(101,4)"/>
<path d="M0 0 C0.33 0 0.66 0 1 0 C1 4.29 1 8.58 1 13 C3.02125 13.45375 5.0425 13.9075 7.125 14.375 C11.51827415 15.36124522 15.74867932 16.51397605 20 18 C19.67 19.32 19.34 20.64 19 22 C15.68587205 20.8588375 12.37399007 19.71129255 9.0625 18.5625 C8.11697266 18.23701172 7.17144531 17.91152344 6.19726562 17.57617188 C5.29814453 17.26357422 4.39902344 16.95097656 3.47265625 16.62890625 C2.64000244 16.34088135 1.80734863 16.05285645 0.94946289 15.75610352 C-1 15 -1 15 -2 14 C-1.9355733 12.39226094 -1.79831686 10.78716777 -1.625 9.1875 C-1.48964844 7.87845703 -1.48964844 7.87845703 -1.3515625 6.54296875 C-1.04111511 4.29739927 -0.60050355 2.18318663 0 0 Z " fill="#306A8E" transform="translate(127,49)"/>
<path d="M0 0 C0.33 0 0.66 0 1 0 C1.33 5.61 1.66 11.22 2 17 C5.96 17 9.92 17 14 17 C14 16.34 14 15.68 14 15 C15.98 15 17.96 15 20 15 C20.66 13.68 21.32 12.36 22 11 C22.66 11 23.32 11 24 11 C24.33 10.01 24.66 9.02 25 8 C25.33 9.32 25.66 10.64 26 12 C18.58372064 18.26263591 10.52902068 19.42351203 1 19 C-0.25433458 15.23699626 -0.10695422 11.72789091 -0.0625 7.8125 C-0.05798828 7.06291016 -0.05347656 6.31332031 -0.04882812 5.54101562 C-0.03706354 3.69397617 -0.01912865 1.84697787 0 0 Z " fill="#8DC7DC" transform="translate(111,181)"/>
<path d="M0 0 C2.33436033 8.09127906 -1.22182936 18.26081037 -4 26 C-4.66 26 -5.32 26 -6 26 C-6.33 27.98 -6.66 29.96 -7 32 C-7.33 32 -7.66 32 -8 32 C-7.38569577 24.8706101 -5.50188332 18.33494834 -3.4375 11.5 C-3.10814453 10.39140625 -2.77878906 9.2828125 -2.43945312 8.140625 C-1.63189543 5.42535856 -0.81862271 2.71194685 0 0 Z " fill="#598AA8" transform="translate(136,16)"/>
<path d="M0 0 C0.99 0 1.98 0 3 0 C3.7734375 1.6796875 3.7734375 1.6796875 4 4 C2.1640625 6.5078125 2.1640625 6.5078125 -0.375 9.125 C-3.56684379 12.29322361 -3.56684379 12.29322361 -6 16 C-6.66 16 -7.32 16 -8 16 C-8.33 16.99 -8.66 17.98 -9 19 C-9.33 18.34 -9.66 17.68 -10 17 C-9.0625 14.875 -9.0625 14.875 -8 13 C-7.34 13 -6.68 13 -6 13 C-5.67 10.69 -5.34 8.38 -5 6 C-4.01 5.67 -3.02 5.34 -2 5 C-0.78130071 2.49552484 -0.78130071 2.49552484 0 0 Z " fill="#23638D" transform="translate(178,20)"/>
<path d="M0 0 C0.33 0 0.66 0 1 0 C1 3.3 1 6.6 1 10 C1.66 10 2.32 10 3 10 C3 11.32 3 12.64 3 14 C6.97977076 14.8441938 10.97007218 15.44687265 15 16 C15 16.66 15 17.32 15 18 C15.66 18 16.32 18 17 18 C17 18.66 17 19.32 17 20 C17.99 20.33 18.98 20.66 20 21 C13.48432194 20.4334193 6.02422023 18.95804473 1.21484375 14.25390625 C-0.38833412 11.27952159 -0.296986 9.10757052 -0.1875 5.75 C-0.14689453 4.13351563 -0.14689453 4.13351563 -0.10546875 2.484375 C-0.07066406 1.66453125 -0.03585937 0.8446875 0 0 Z " fill="#5B90B3" transform="translate(16,76)"/>
<path d="M0 0 C1.29651891 3.67411638 0.70899299 6.33404006 -0.14453125 10.0859375 C-0.54188477 11.85324219 -0.54188477 11.85324219 -0.94726562 13.65625 C-1.23279297 14.8834375 -1.51832031 16.110625 -1.8125 17.375 C-2.08642578 18.59445313 -2.36035156 19.81390625 -2.64257812 21.0703125 C-3.87466505 26.48322196 -5.1779872 31.75106714 -7 37 C-8.09553807 33.71338579 -7.89445564 32.49849369 -7.1875 29.1875 C-7.01605469 28.35605469 -6.84460938 27.52460937 -6.66796875 26.66796875 C-6 24 -6 24 -4.99609375 21.16796875 C-3.84894352 17.51958116 -3.32212358 13.90722571 -2.875 10.125 C-2.78863281 9.43664063 -2.70226562 8.74828125 -2.61328125 8.0390625 C-2.40340434 6.36004725 -2.20092913 4.68010952 -2 3 C-1.34 3 -0.68 3 0 3 C0 2.01 0 1.02 0 0 Z " fill="#759DB3" transform="translate(129,25)"/>
<path d="M0 0 C2.31 0.66 4.62 1.32 7 2 C7 4.31 7 6.62 7 9 C7.66 9 8.32 9 9 9 C12.125 15.625 12.125 15.625 11 19 C8.03073619 15.44608026 5.57681464 11.81482005 3.25 7.8125 C2.63640625 6.76707031 2.0228125 5.72164062 1.390625 4.64453125 C0 2 0 2 0 0 Z " fill="#0F5686" transform="translate(69,47)"/>
<path d="M0 0 C0.33 0.99 0.66 1.98 1 3 C-0.98 3.33 -2.96 3.66 -5 4 C-5 4.66 -5 5.32 -5 6 C-5.89203125 6.40992188 -6.7840625 6.81984375 -7.703125 7.2421875 C-8.87359375 7.78101563 -10.0440625 8.31984375 -11.25 8.875 C-12.99023438 9.67550781 -12.99023438 9.67550781 -14.765625 10.4921875 C-17.19853869 11.6263719 -19.60910636 12.78088096 -22 14 C-17.23668001 7.59928877 -8.52018721 0 0 0 Z " fill="#5588A3" transform="translate(88,5)"/>
<path d="M0 0 C1.43836751 0.11458693 2.87570966 0.24209116 4.3125 0.375 C5.51326172 0.47941406 5.51326172 0.47941406 6.73828125 0.5859375 C9 1 9 1 12 3 C12.51171875 6.2578125 12.51171875 6.2578125 12.6875 10.125 C12.75324219 11.40632813 12.81898437 12.68765625 12.88671875 14.0078125 C12.92410156 14.99523437 12.96148437 15.98265625 13 17 C4.96428571 19.27678571 4.96428571 19.27678571 1 18 C1 17.34 1 16.68 1 16 C4.3 15.67 7.6 15.34 11 15 C10.67 11.37 10.34 7.74 10 4 C6.7 3.01 3.4 2.02 0 1 C0 0.67 0 0.34 0 0 Z " fill="#6DAAC9" transform="translate(52,105)"/>
<path d="M0 0 C3.48968879 0.06979378 6.08330276 0.15779734 8.73046875 2.58984375 C9.76362972 3.83728996 10.76814175 5.10918678 11.73828125 6.40625 C12.92830149 8.14068621 12.92830149 8.14068621 15 9 C15 9.99 15 10.98 15 12 C10.95264468 10.59983383 8.01519578 8.6818763 4.6875 6 C3.80449219 5.29875 2.92148437 4.5975 2.01171875 3.875 C1.34785156 3.25625 0.68398438 2.6375 0 2 C0 1.34 0 0.68 0 0 Z " fill="#397BA6" transform="translate(47,68)"/>
<path d="M0 0 C0 0.66 0 1.32 0 2 C-0.66 2 -1.32 2 -2 2 C-2 2.66 -2 3.32 -2 4 C-0.35 3.67 1.3 3.34 3 3 C3.33 4.98 3.66 6.96 4 9 C2.35 9 0.7 9 -1 9 C-1 8.34 -1 7.68 -1 7 C-3.31 6.34 -5.62 5.68 -8 5 C-6.44843568 0.34530705 -4.78780941 0 0 0 Z " fill="#78CEF1" transform="translate(128,108)"/>
<path d="M0 0 C4.84659077 0.59104765 8.60748167 1.97944157 13 4 C12.55530671 9.03985731 10.28656638 11.37634988 7 15 C7 12 7 12 8 11 C8.04063832 9.33382885 8.042721 7.66611905 8 6 C6.02 5.01 4.04 4.02 2 3 C2 2.34 2 1.68 2 1 C1.34 0.67 0.68 0.34 0 0 Z " fill="#7DA2B7" transform="translate(176,8)"/>
<path d="M0 0 C0.99 0.33 1.98 0.66 3 1 C3.33 3.31 3.66 5.62 4 8 C4.66 8 5.32 8 6 8 C6 9.32 6 10.64 6 12 C6.66 12 7.32 12 8 12 C8 13.32 8 14.64 8 16 C8.66 16 9.32 16 10 16 C10 17.32 10 18.64 10 20 C10.99 20.33 11.98 20.66 13 21 C13.6875 23.0625 13.6875 23.0625 14 25 C10.44883628 23.58925733 9.26106488 22.23425157 7.67578125 18.7890625 C7.28712891 17.95632812 6.89847656 17.12359375 6.49804688 16.265625 C6.10681641 15.39421875 5.71558594 14.5228125 5.3125 13.625 C4.90966797 12.76132813 4.50683594 11.89765625 4.09179688 11.0078125 C2.41291481 7.3632042 0.86755094 3.93103788 0 0 Z " fill="#79C0D5" transform="translate(137,162)"/>
<path d="M0 0 C0.33 0 0.66 0 1 0 C2.26289578 6.97960401 1.59895859 13.19464819 0.625 20.1875 C0.48578125 21.25419922 0.3465625 22.32089844 0.203125 23.41992188 C-0.40174248 27.98210628 -1.05926537 32.49354478 -2 37 C-2.33 37 -2.66 37 -3 37 C-3.05469084 34.9794772 -3.09310129 32.95851112 -3.125 30.9375 C-3.14820312 29.81214844 -3.17140625 28.68679687 -3.1953125 27.52734375 C-3 24 -3 24 -2.03125 20.625 C-0.82404316 16.38148504 -0.55539777 12.44842069 -0.375 8.0625 C-0.33632812 7.28326172 -0.29765625 6.50402344 -0.2578125 5.70117188 C-0.16455873 3.80112621 -0.08124038 1.90059722 0 0 Z " fill="#84C2D8" transform="translate(105,152)"/>
<path d="M0 0 C0.56905158 12.03438713 0.56905158 12.03438713 -3 16 C-3.99 16.33 -4.98 16.66 -6 17 C-6 16.01 -6 15.02 -6 14 C-5.01 14 -4.02 14 -3 14 C-2.855625 13.13375 -2.71125 12.2675 -2.5625 11.375 C-2.04166667 8.25 -1.52083333 5.125 -1 2 C-5.455 2.495 -5.455 2.495 -10 3 C-9.67 2.01 -9.34 1.02 -9 0 C-5.52176885 -1.15941038 -3.54104422 -0.70820884 0 0 Z " fill="#81C5D9" transform="translate(118,127)"/>
<path d="M0 0 C0.66 0.33 1.32 0.66 2 1 C2.144375 1.78375 2.28875 2.5675 2.4375 3.375 C3.06118904 6.28554883 3.71788877 7.17431102 6 9 C6.66 9.33 7.32 9.66 8 10 C8 10.66 8 11.32 8 12 C9.98 12 11.96 12 14 12 C14.33 12.66 14.66 13.32 15 14 C4.07845845 12.71848812 4.07845845 12.71848812 0.8125 9.5 C-1 7 -1 7 -1 5 C-1.66 5 -2.32 5 -3 5 C-2.625 3.0625 -2.625 3.0625 -2 1 C-1.34 0.67 -0.68 0.34 0 0 Z " fill="#81D0E2" transform="translate(137,105)"/>
<path d="M0 0 C1.81612488 0.95144598 3.62781081 1.91136933 5.4375 2.875 C6.44683594 3.40867187 7.45617187 3.94234375 8.49609375 4.4921875 C11 6 11 6 12 8 C6.83814555 7.49393584 4.63110535 6.77866321 0 4 C-0.33 8.29 -0.66 12.58 -1 17 C-1.33 17 -1.66 17 -2 17 C-2.05398987 14.72942623 -2.09278742 12.45848712 -2.125 10.1875 C-2.14820312 8.92292969 -2.17140625 7.65835938 -2.1953125 6.35546875 C-2 3 -2 3 0 0 Z " fill="#76CBE1" transform="translate(71,100)"/>
<path d="M0 0 C0.33 0 0.66 0 1 0 C1.05534912 0.61931396 1.11069824 1.23862793 1.16772461 1.87670898 C1.42333022 4.73039529 1.68040676 7.58394734 1.9375 10.4375 C2.02451172 11.41138672 2.11152344 12.38527344 2.20117188 13.38867188 C2.73211128 19.26833412 3.32675665 25.13489806 4 31 C3.34 29.68 2.68 28.36 2 27 C1.34 27 0.68 27 0 27 C-1.11139151 17.81819633 -0.8149484 9.1775727 0 0 Z " fill="#759FB6" transform="translate(94,21)"/>
<path d="M0 0 C0.639375 0.165 1.27875 0.33 1.9375 0.5 C7.63134491 1.42960733 13.38940676 1.44789503 19 0 C18.1875 1.9375 18.1875 1.9375 17 4 C12.73426261 5.42191246 8.31276094 6.07117349 4.14453125 4.140625 C2.5 3.0625 2.5 3.0625 0 1 C0 0.67 0 0.34 0 0 Z " fill="#7ECAE1" transform="translate(82,135)"/>
<path d="M0 0 C4.1095755 4.1095755 4.98045337 8.36439579 6 14 C5.6875 17.6875 5.6875 17.6875 5 20 C3.0625 19.625 3.0625 19.625 1 19 C0.67 18.34 0.34 17.68 0 17 C0.99 17 1.98 17 3 17 C2.01 11.39 1.02 5.78 0 0 Z " fill="#74C8DA" transform="translate(174,107)"/>
<path d="M0 0 C1.65 0 3.3 0 5 0 C-0.90547817 5.11808108 -7.68368274 9.25638103 -15 12 C-14.875 10.1875 -14.875 10.1875 -14 8 C-10.32115375 5.71094011 -8.38448044 5 -4 5 C-4 4.01 -4 3.02 -4 2 C-2.68 2 -1.36 2 0 2 C0 1.34 0 0.68 0 0 Z " fill="#62B0CD" transform="translate(64,141)"/>
<path d="M0 0 C2.05078125 0.03255208 4.1015625 0.06510417 6.15234375 0.09765625 C6.15234375 1.08765625 6.15234375 2.07765625 6.15234375 3.09765625 C5.16234375 3.42765625 4.17234375 3.75765625 3.15234375 4.09765625 C2.82234375 4.75765625 2.49234375 5.41765625 2.15234375 6.09765625 C1.49234375 6.09765625 0.83234375 6.09765625 0.15234375 6.09765625 C0.15234375 6.75765625 0.15234375 7.41765625 0.15234375 8.09765625 C-1.16765625 8.09765625 -2.48765625 8.09765625 -3.84765625 8.09765625 C-2.83612374 0.14990083 -2.83612374 0.14990083 0 0 Z " fill="#7BCDF1" transform="translate(105.84765625,102.90234375)"/>
<path d="M0 0 C0.99 0.99 1.98 1.98 3 3 C1.52186113 6.22973344 -0.31746497 8.88997098 -2.5 11.6875 C-3.1084375 12.47511719 -3.716875 13.26273438 -4.34375 14.07421875 C-6 16 -6 16 -8 17 C-9.32 16.01 -10.64 15.02 -12 14 C-10.02 14 -8.04 14 -6 14 C-6 13.01 -6 12.02 -6 11 C-5.34 11 -4.68 11 -4 11 C-3.67 9.35 -3.34 7.7 -3 6 C-2.01 6 -1.02 6 0 6 C0 4.02 0 2.04 0 0 Z " fill="#558AA8" transform="translate(78,69)"/>
<path d="M0 0 C0.66 0.99 1.32 1.98 2 3 C-1.85055644 10.42607313 -1.85055644 10.42607313 -6 12 C-6.33 12.66 -6.66 13.32 -7 14 C-3.04 14 0.92 14 5 14 C1.59492291 16.27005139 0.78521579 16.18320175 -3.125 15.75 C-4.01445313 15.66234375 -4.90390625 15.5746875 -5.8203125 15.484375 C-6.89925781 15.24460938 -6.89925781 15.24460938 -8 15 C-8.33 14.34 -8.66 13.68 -9 13 C-8.43410156 12.22914063 -7.86820312 11.45828125 -7.28515625 10.6640625 C-6.55167969 9.66117188 -5.81820312 8.65828125 -5.0625 7.625 C-4.33160156 6.62726563 -3.60070312 5.62953125 -2.84765625 4.6015625 C-1.0220431 2.17182891 -1.0220431 2.17182891 0 0 Z " fill="#A6D8E7" transform="translate(107,130)"/>
<path d="M0 0 C0.99 0.33 1.98 0.66 3 1 C2.68806536 2.72926874 2.37542638 4.45841044 2.0625 6.1875 C1.88847656 7.15042969 1.71445313 8.11335938 1.53515625 9.10546875 C1.0476265 11.74239972 0.53328895 14.3719905 0 17 C-0.66 17 -1.32 17 -2 17 C-2.33 17.99 -2.66 18.98 -3 20 C-2.67 15.38 -2.34 10.76 -2 6 C-1.34 6 -0.68 6 0 6 C0 4.02 0 2.04 0 0 Z " fill="#407597" transform="translate(131,8)"/>
<path d="M0 0 C1.3805087 3.76668598 0.59568159 6.44789173 -0.4375 10.25 C-0.72496094 11.32765625 -1.01242188 12.4053125 -1.30859375 13.515625 C-1.53675781 14.33546875 -1.76492187 15.1553125 -2 16 C-0.35 14.68 1.3 13.36 3 12 C3 13.65 3 15.3 3 17 C3.99 17.33 4.98 17.66 6 18 C-0.15234375 18.09765625 -0.15234375 18.09765625 -2 18 C-3.62094818 16.37905182 -3.20950959 14.60872115 -3.25 12.375 C-3.22198588 7.50054376 -2.24040652 4.2941125 0 0 Z " fill="#2EB6DD" transform="translate(117,79)"/>
<path d="M0 0 C0.33 0 0.66 0 1 0 C1 3.63 1 7.26 1 11 C1.66 11 2.32 11 3 11 C3 11.66 3 12.32 3 13 C4.32 13 5.64 13 7 13 C7.99 15.31 8.98 17.62 10 20 C5.11695383 17.8609665 1.84652497 14.47311067 -1 10 C-1.76826713 6.45605807 -1.65287149 3.30574298 0 0 Z " fill="#6495B2" transform="translate(33,46)"/>
<path d="M0 0 C2.75220373 0.86911697 4.5656698 1.4472161 6.375 3.75 C7.20607725 6.74187809 6.68048336 9.00587323 6 12 C4.68 12.33 3.36 12.66 2 13 C2 9.7 2 6.4 2 3 C1.34 3 0.68 3 0 3 C0 2.01 0 1.02 0 0 Z " fill="#56C1DE" transform="translate(91,94)"/>
<path d="M0 0 C1.32 0 2.64 0 4 0 C2.31029911 3.66398299 0.12699789 6.90832572 -2.125 10.25 C-2.84945312 11.32765625 -3.57390625 12.4053125 -4.3203125 13.515625 C-4.87460938 14.33546875 -5.42890625 15.1553125 -6 16 C-6.33 14.68 -6.66 13.36 -7 12 C-6.34 12 -5.68 12 -5 12 C-5 11.01 -5 10.02 -5 9 C-4.34 9 -3.68 9 -3 9 C-2.87625 8.071875 -2.7525 7.14375 -2.625 6.1875 C-2 3 -2 3 0 0 Z " fill="#6792AB" transform="translate(157,48)"/>
<path d="M0 0 C0.66 0.33 1.32 0.66 2 1 C1.360625 1.763125 0.72125 2.52625 0.0625 3.3125 C-2.14232781 5.88246713 -2.14232781 5.88246713 -3 9 C-4.92578125 10.09765625 -4.92578125 10.09765625 -7.3125 11.0625 C-10.27083374 12.28006215 -13.15468579 13.53502129 -16 15 C-13.27291901 11.36600602 -10.46824827 8.58520053 -6.875 5.8125 C-3.31075141 3.04993676 -3.31075141 3.04993676 0 0 Z " fill="#7ABFD7" transform="translate(57,154)"/>
<path d="M0 0 C0.99 0.33 1.98 0.66 3 1 C3 1.66 3 2.32 3 3 C4.65 2.34 6.3 1.68 8 1 C7.67 1.99 7.34 2.98 7 4 C7.515625 4.4125 8.03125 4.825 8.5625 5.25 C9.036875 5.8275 9.51125 6.405 10 7 C9.67 8.32 9.34 9.64 9 11 C5.7 8.03 2.4 5.06 -1 2 C-0.67 1.34 -0.34 0.68 0 0 Z " fill="#53ACD3" transform="translate(145,135)"/>
<path d="M0 0 C3.89006773 1.38780795 6.96558708 3.2152227 10.3125 5.625 C11.19550781 6.25664063 12.07851562 6.88828125 12.98828125 7.5390625 C13.65214844 8.02117187 14.31601563 8.50328125 15 9 C14.67 10.32 14.34 11.64 14 13 C13.67 11.68 13.34 10.36 13 9 C12.26394531 9.06960937 11.52789062 9.13921875 10.76953125 9.2109375 C7.31700153 8.94798037 6.20293387 7.94621016 3.6875 5.625 C2.99011719 4.99851562 2.29273438 4.37203125 1.57421875 3.7265625 C0 2 0 2 0 0 Z " fill="#4D84A7" transform="translate(54,80)"/>
<path d="M0 0 C0 0.66 0 1.32 0 2 C-0.66 2 -1.32 2 -2 2 C-2.20625 2.598125 -2.4125 3.19625 -2.625 3.8125 C-4.53549209 6.85191923 -6.71404225 7.69930839 -10 9 C-10.66 8.67 -11.32 8.34 -12 8 C-5.94594595 0 -5.94594595 0 0 0 Z " fill="#2A94C2" transform="translate(77,141)"/>
<path d="M0 0 C2.4375 0.375 2.4375 0.375 5 1 C5.33 1.66 5.66 2.32 6 3 C6.99 3.33 7.98 3.66 9 4 C9 4.66 9 5.32 9 6 C9.5775 5.79375 10.155 5.5875 10.75 5.375 C13.51967567 4.91338739 14.64561267 5.57055055 17 7 C17 7.66 17 8.32 17 9 C16.29875 8.855625 15.5975 8.71125 14.875 8.5625 C11.92443859 7.98521625 8.96729849 7.48304859 6 7 C6 6.34 6 5.68 6 5 C5.195625 4.731875 4.39125 4.46375 3.5625 4.1875 C2.716875 3.795625 1.87125 3.40375 1 3 C0.67 2.01 0.34 1.02 0 0 Z " fill="#21B9E7" transform="translate(139,110)"/>
<path d="M0 0 C1.7505441 0.21435234 3.5007797 0.43135025 5.25 0.65625 C7.37313266 0.92164158 9.49865585 1.16795281 11.625 1.40625 C24.23704798 2.90768428 24.23704798 2.90768428 30 6 C30 6.99 30 7.98 30 9 C29.01 8.67 28.02 8.34 27 8 C26.67 7.34 26.34 6.68 26 6 C19.71375163 4.3236671 13.36112753 3.42466701 6.91796875 2.5625 C4.24225981 2.04670069 2.33908529 1.35927474 0 0 Z " fill="#1E719F" transform="translate(33,103)"/>
<path d="M0 0 C3.35595828 0.59927826 5.37801226 1.84622436 8 4 C5.36 4.66 2.72 5.32 0 6 C0.66 8.64 1.32 11.28 2 14 C1.01 13.67 0.02 13.34 -1 13 C-1.02708567 11.39592672 -1.04643483 9.7917215 -1.0625 8.1875 C-1.07410156 7.29417969 -1.08570312 6.40085937 -1.09765625 5.48046875 C-1 3 -1 3 0 0 Z " fill="#2EB4E2" transform="translate(71,104)"/>
<path d="M0 0 C0.2475 0.556875 0.495 1.11375 0.75 1.6875 C2.21606015 4.39971127 4.02989471 6.63587365 6 9 C4 10 4 10 1.5625 9.3125 C-1.25396909 7.86991827 -2.49071299 6.76702619 -4 4 C-3.67 3.01 -3.34 2.02 -3 1 C-2.01 0.67 -1.02 0.34 0 0 Z " fill="#46A2C6" transform="translate(43,168)"/>
<path d="M0 0 C5.23880078 0.55145271 9.97350697 1.42922093 15 3 C15 3.66 15 4.32 15 5 C4.11971831 5.57042254 4.11971831 5.57042254 0 2 C0 1.34 0 0.68 0 0 Z " fill="#54A8CD" transform="translate(149,121)"/>
<path d="M0 0 C3 2 3 2 4 5 C4.06740865 6.56118428 4.08514456 8.1250252 4.0625 9.6875 C4.05347656 10.49574219 4.04445312 11.30398437 4.03515625 12.13671875 C4.02355469 12.75160156 4.01195312 13.36648437 4 14 C1.97954558 13.39816251 -0.02111039 12.72693904 -2 12 C-2.33 11.34 -2.66 10.68 -3 10 C-1.35 10 0.3 10 2 10 C1.34 6.7 0.68 3.4 0 0 Z " fill="#A8DBE9" transform="translate(130,107)"/>
<path d="M0 0 C0 0.33 0 0.66 0 1 C-3.29073662 1.22531972 -6.58249419 1.42735982 -9.875 1.625 C-11.28072266 1.72167969 -11.28072266 1.72167969 -12.71484375 1.8203125 C-14.05869141 1.89765625 -14.05869141 1.89765625 -15.4296875 1.9765625 C-16.25710449 2.02893066 -17.08452148 2.08129883 -17.93701172 2.13525391 C-20 2 -20 2 -22 0 C-14.39358577 -2.73830912 -7.83072824 -1.4297678 0 0 Z " fill="#96E6F1" transform="translate(166,100)"/>
<path d="M0 0 C3.78699616 3.36621881 6.8272631 7.41641804 9 12 C8.67 12.66 8.34 13.32 8 14 C7.01 13.67 6.02 13.34 5 13 C5 12.01 5 11.02 5 10 C4.01 9.67 3.02 9.34 2 9 C0.29466783 5.67908998 0 3.81507216 0 0 Z " fill="#6096B6" transform="translate(64,47)"/>
<path d="M0 0 C0.33 0 0.66 0 1 0 C1.33 3.63 1.66 7.26 2 11 C3.65 11.33 5.3 11.66 7 12 C2.82412255 13.39195915 0.86525224 11.82323219 -3 10 C-2.01 6.7 -1.02 3.4 0 0 Z " fill="#7BBDD7" transform="translate(76,184)"/>
<path d="M0 0 C1.67542976 0.28604898 3.34385343 0.61781233 5 1 C4.64950425 4.24208567 4.43778819 5.61527704 1.9375 7.8125 C1.298125 8.204375 0.65875 8.59625 0 9 C0 7.35 0 5.7 0 4 C-0.66 4 -1.32 4 -2 4 C-1 1 -1 1 0 0 Z " fill="#74C5E0" transform="translate(101,126)"/>
<path d="M0 0 C3.3 0 6.6 0 10 0 C10.33 0.99 10.66 1.98 11 3 C7.52674819 4.1577506 4.63932552 4.06866652 1 4 C0.67 2.68 0.34 1.36 0 0 Z " fill="#80CCE6" transform="translate(102,117)"/>
<path d="M0 0 C3 2 3 2 3.4375 4 C3.623125 4.66 3.80875 5.32 4 6 C5.31647119 6.69937532 6.65022151 7.36729133 8 8 C8.33 8.99 8.66 9.98 9 11 C7 11 5 11 3 11 C0 4.5 0 4.5 0 0 Z " fill="#4F9DC1" transform="translate(13,114)"/>
<path d="M0 0 C1.05445313 0.01289062 2.10890625 0.02578125 3.1953125 0.0390625 C5.875 0.375 5.875 0.375 7.875 2.375 C6.55435547 2.46587891 6.55435547 2.46587891 5.20703125 2.55859375 C3.46486328 2.68427734 3.46486328 2.68427734 1.6875 2.8125 C-0.03533203 2.93431641 -0.03533203 2.93431641 -1.79296875 3.05859375 C-4.64098171 3.32903812 -7.33710482 3.75021747 -10.125 4.375 C-6.9384536 0.48033217 -4.98455938 -0.13471782 0 0 Z " fill="#7DD2E4" transform="translate(129.125,69.625)"/>
<path d="M0 0 C5.78461538 4.30769231 5.78461538 4.30769231 6.875 7.8125 C6.936875 8.8953125 6.936875 8.8953125 7 10 C5.02 10 3.04 10 1 10 C0.67 9.34 0.34 8.68 0 8 C0.99 8 1.98 8 3 8 C2.80528889 6.05000871 2.80528889 6.05000871 2 4 C0.0162233 2.71563266 0.0162233 2.71563266 -2 2 C-1.34 2 -0.68 2 0 2 C0 1.34 0 0.68 0 0 Z " fill="#3EA1D2" transform="translate(145,142)"/>
<path d="M0 0 C0.61328125 1.78125 0.61328125 1.78125 1 4 C0.03548348 5.86251466 -0.9343583 7.72263386 -1.94140625 9.5625 C-3.92673027 14.1338734 -4.3776722 19.08688577 -5 24 C-5.33 24 -5.66 24 -6 24 C-5.85472716 14.8346044 -4.89957153 7.84654629 0 0 Z " fill="#92DBE9" transform="translate(118,74)"/>
<path d="M0 0 C1.28222189 3.03070628 0.98589446 4.03596914 -0.25 7.1875 C-2 10 -2 10 -5 11 C-4.4971641 7.31253672 -4.00153469 4.17890804 -2 1 C-1.34 0.67 -0.68 0.34 0 0 Z " fill="#47BBED" transform="translate(111,130)"/>
<path d="M0 0 C0.33 0 0.66 0 1 0 C0.94199219 0.90363281 0.88398437 1.80726562 0.82421875 2.73828125 C0.77910156 3.91777344 0.73398438 5.09726562 0.6875 6.3125 C0.62949219 7.48425781 0.57148437 8.65601563 0.51171875 9.86328125 C0.660191 13.20099769 0.660191 13.20099769 3.51953125 14.91796875 C4.33808594 15.27503906 5.15664062 15.63210937 6 16 C5.34 16.33 4.68 16.66 4 17 C1.96855359 16.06553465 -0.03533587 15.06775224 -2 14 C-1.85795259 12.41632253 -1.71119847 10.83306682 -1.5625 9.25 C-1.48128906 8.36828125 -1.40007812 7.4865625 -1.31640625 6.578125 C-1.03761535 4.30649548 -0.61209423 2.20148177 0 0 Z " fill="#749FB5" transform="translate(127,49)"/>
<path d="M0 0 C0.33 0.99 0.66 1.98 1 3 C1.66 3 2.32 3 3 3 C3 3.66 3 4.32 3 5 C3.66 5 4.32 5 5 5 C5.12375 6.134375 5.2475 7.26875 5.375 8.4375 C5.684375 10.2009375 5.684375 10.2009375 6 12 C6.66 12.33 7.32 12.66 8 13 C7.34 13.66 6.68 14.32 6 15 C4.80017556 13.07010782 3.61547182 11.13080772 2.4375 9.1875 C1.44556641 7.56908203 1.44556641 7.56908203 0.43359375 5.91796875 C-1 3 -1 3 0 0 Z " fill="#618DA6" transform="translate(62,32)"/>
<path d="M0 0 C0 3.74016583 -0.9341591 4.45276193 -3.375 7.1875 C-4.00148437 7.90292969 -4.62796875 8.61835937 -5.2734375 9.35546875 C-7 11 -7 11 -9 11 C-9.33 11.99 -9.66 12.98 -10 14 C-10.33 13.34 -10.66 12.68 -11 12 C-10.0625 9.875 -10.0625 9.875 -9 8 C-8.34 8 -7.68 8 -7 8 C-6.938125 7.401875 -6.87625 6.80375 -6.8125 6.1875 C-5.67402342 3.12237075 -3.82352481 2.48235053 -1 1 C-0.67 0.67 -0.34 0.34 0 0 Z " fill="#81A6BE" transform="translate(179,25)"/>
<path d="M0 0 C0.66 0.33 1.32 0.66 2 1 C0.71034824 2.37562854 -0.62689293 3.70766393 -2 5 C-2.66 5 -3.32 5 -4 5 C-4 5.66 -4 6.32 -4 7 C-6.31 8.32 -8.62 9.64 -11 11 C-10.67 10.01 -10.34 9.02 -10 8 C-9.34 8 -8.68 8 -8 8 C-8 7.01 -8 6.02 -8 5 C-5.36740403 2.58085776 -3.40571201 1.13523734 0 0 Z " fill="#11547E" transform="translate(74,14)"/>
<path d="M0 0 C0.66 1.32 1.32 2.64 2 4 C-2.82624485 7.84129692 -5.83543524 9.62257767 -12 10 C-11.34 9.67 -10.68 9.34 -10 9 C-10 8.34 -10 7.68 -10 7 C-8.02 7 -6.04 7 -4 7 C-3.34 5.68 -2.68 4.36 -2 3 C-1.34 3 -0.68 3 0 3 C0 2.01 0 1.02 0 0 Z " fill="#78BED3" transform="translate(135,189)"/>
<path d="M0 0 C2.26979665 -0.10794277 4.54105196 -0.18556176 6.8125 -0.25 C8.07707031 -0.29640625 9.34164062 -0.3428125 10.64453125 -0.390625 C14 0 14 0 15.94921875 2.015625 C16.29597656 2.67046875 16.64273438 3.3253125 17 4 C16.67 4.66 16.34 5.32 16 6 C15.34 5.67 14.68 5.34 14 5 C14.33 4.34 14.66 3.68 15 3 C13.5459375 3.0309375 13.5459375 3.0309375 12.0625 3.0625 C9 3 9 3 8 2 C6.65252916 1.76924918 5.29622435 1.58846937 3.9375 1.4375 C2.638125 1.293125 1.33875 1.14875 0 1 C0 0.67 0 0.34 0 0 Z " fill="#34B5DA" transform="translate(124,72)"/>
<path d="M0 0 C-1.97420135 2.52259061 -2.96745642 2.9929808 -6.1875 3.6875 C-7.5796875 3.8421875 -7.5796875 3.8421875 -9 4 C-9.66 2.68 -10.32 1.36 -11 0 C-9.54263913 -0.19491452 -8.08405407 -0.38069358 -6.625 -0.5625 C-5.81289062 -0.66691406 -5.00078125 -0.77132812 -4.1640625 -0.87890625 C-2 -1 -2 -1 0 0 Z " fill="#4D7D95" transform="translate(92,66)"/>
<path d="M0 0 C3.7952131 1.49097658 5.61042731 3.75700849 8 7 C2 5.5 2 5.5 -4 4 C-2.68 2.68 -1.36 1.36 0 0 Z " fill="#6BB4CD" transform="translate(137,135)"/>
<path d="M0 0 C0.33 0 0.66 0 1 0 C2.45184478 4.53701494 3.23509196 8.18061476 3 13 C3.66 13 4.32 13 5 13 C5.33 15.31 5.66 17.62 6 20 C1.81999901 15.42190367 -0.1875 9.08177941 -0.1875 2.9375 C-0.125625 1.968125 -0.06375 0.99875 0 0 Z " fill="#96DFEC" transform="translate(93,76)"/>
<path d="M0 0 C2.17692568 4.20872298 3.12422287 7.43483879 3.0625 12.1875 C3.05347656 13.08855469 3.04445313 13.98960937 3.03515625 14.91796875 C3.02355469 15.60503906 3.01195313 16.29210937 3 17 C2.67 17 2.34 17 2 17 C2 14.03 2 11.06 2 8 C1.34 8 0.68 8 0 8 C0 9.65 0 11.3 0 13 C-0.33 13 -0.66 13 -1 13 C-1.0272415 11.58344207 -1.04650467 10.16672955 -1.0625 8.75 C-1.07410156 7.96109375 -1.08570312 7.1721875 -1.09765625 6.359375 C-1.00385306 4.09308998 -0.63241063 2.1711105 0 0 Z " fill="#BCEBF3" transform="translate(119,123)"/>
<path d="M0 0 C6.27 0 12.54 0 19 0 C20 4 20 4 19.0625 6.25 C18.5365625 7.11625 18.5365625 7.11625 18 8 C18 6.02 18 4.04 18 2 C12.06 1.67 6.12 1.34 0 1 C0 0.67 0 0.34 0 0 Z " fill="#C0E1E6" transform="translate(116,0)"/>
<path d="M0 0 C1.4540625 0.0309375 1.4540625 0.0309375 2.9375 0.0625 C2.2775 0.7225 1.6175 1.3825 0.9375 2.0625 C0.53702556 4.38525177 0.1977896 6.71989357 -0.0625 9.0625 C-0.7225 8.7325 -1.3825 8.4025 -2.0625 8.0625 C-2.79325648 5.7484378 -3.46388258 3.41421131 -4.0625 1.0625 C-3.0625 0.0625 -3.0625 0.0625 0 0 Z " fill="#5BA8C9" transform="translate(22.0625,137.9375)"/>
<path d="M0 0 C0.89203125 0.00902344 1.7840625 0.01804687 2.703125 0.02734375 C3.37859375 0.03894531 4.0540625 0.05054687 4.75 0.0625 C4.42 1.0525 4.09 2.0425 3.75 3.0625 C2.76 2.7325 1.77 2.4025 0.75 2.0625 C-0.24 2.5575 -0.24 2.5575 -1.25 3.0625 C-4.25 3.25 -4.25 3.25 -7.25 3.0625 C-7.91 2.4025 -8.57 1.7425 -9.25 1.0625 C-6.09493858 0.12630187 -3.28413498 -0.0432123 0 0 Z " fill="#85D7E8" transform="translate(137.25,101.9375)"/>
<path d="M0 0 C2.625 0.375 2.625 0.375 5 1 C4.67 2.65 4.34 4.3 4 6 C2.35 6 0.7 6 -1 6 C-1.625 4.125 -1.625 4.125 -2 2 C-1.34 1.34 -0.68 0.68 0 0 Z " fill="#0563A0" transform="translate(45,33)"/>
<path d="M0 0 C0.33 0.99 0.66 1.98 1 3 C-0.76949612 3.50471197 -2.54065223 4.00360685 -4.3125 4.5 C-5.79169922 4.91765625 -5.79169922 4.91765625 -7.30078125 5.34375 C-10 6 -10 6 -13 6 C-9.40464172 2.97989905 -4.81374718 0 0 0 Z " fill="#6B94AF" transform="translate(88,5)"/>
<path d="M0 0 C-0.33 0.66 -0.66 1.32 -1 2 C-2.65 2 -4.3 2 -6 2 C-5.34 4.31 -4.68 6.62 -4 9 C-6.62187494 7.95125002 -7.79371361 7.35068687 -9.25 4.875 C-9.4975 4.25625 -9.745 3.6375 -10 3 C-6.68152292 -0.06320961 -4.44849969 -0.3033068 0 0 Z " fill="#96D3E5" transform="translate(86,126)"/>
<path d="M0 0 C2.6875 0.875 2.6875 0.875 5 2 C5 2.33 5 2.66 5 3 C-0.38027025 4.19088986 -5.45291384 5.2919519 -11 5 C-10.67 4.34 -10.34 3.68 -10 3 C-7.66842508 2.65458149 -5.33491639 2.32205743 -3 2 C-2.01 1.34 -1.02 0.68 0 0 Z " fill="#73C2DE" transform="translate(96,123)"/>
<path d="M0 0 C2.70583756 0.25560029 5.37210774 0.56759978 8.0625 0.9375 C9.20041992 1.08735352 9.20041992 1.08735352 10.36132812 1.24023438 C12.24154246 1.48856457 14.12086128 1.74365751 16 2 C16 2.33 16 2.66 16 3 C9.07 2.505 9.07 2.505 2 2 C2.33 4.31 2.66 6.62 3 9 C1 6 1 6 1 2 C0.34 1.67 -0.32 1.34 -1 1 C-0.67 0.67 -0.34 0.34 0 0 Z " fill="#C2EAF3" transform="translate(114,104)"/>
<path d="M0 0 C0.66 1.32 1.32 2.64 2 4 C-0.31 6.97 -2.62 9.94 -5 13 C-5.33 12.01 -5.66 11.02 -6 10 C-5.34 10 -4.68 10 -4 10 C-3.896875 9.46375 -3.79375 8.9275 -3.6875 8.375 C-2.81907303 5.37497956 -1.44379704 2.7620465 0 0 Z " fill="#65B0D0" transform="translate(82,156)"/>
<path d="M0 0 C0.66 1.98 1.32 3.96 2 6 C1.62875 5.505 1.2575 5.01 0.875 4.5 C-1.81189184 2.35048653 -3.62140188 2.73501191 -7 3 C-9.00569659 3.29714023 -11.00822259 3.62061383 -13 4 C-9.38656695 0.38656695 -4.97659681 -0.29274099 0 0 Z " fill="#76B3CB" transform="translate(125,147)"/>
<path d="M0 0 C0.99 0 1.98 0 3 0 C2.57630928 1.6286551 2.1355377 3.25287378 1.6875 4.875 C1.44386719 5.77992187 1.20023438 6.68484375 0.94921875 7.6171875 C0 10 0 10 -3 12 C-4.32 11.34 -5.64 10.68 -7 10 C-5.02 9.67 -3.04 9.34 -1 9 C-1.020625 8.071875 -1.04125 7.14375 -1.0625 6.1875 C-1 3 -1 3 0 0 Z " fill="#6594B6" transform="translate(65,93)"/>
<path d="M0 0 C2.72106694 2.72106694 2.60655572 4.84776311 3.125 8.625 C3.29257812 9.81351563 3.46015625 11.00203125 3.6328125 12.2265625 C3.75398438 13.14179687 3.87515625 14.05703125 4 15 C3.34 15 2.68 15 2 15 C2 13.68 2 12.36 2 11 C1.34 11 0.68 11 0 11 C0 7.37 0 3.74 0 0 Z " fill="#1E649C" transform="translate(17,75)"/>
<path d="M0 0 C1.37606252 4.71792866 0.91009442 8.91213634 -1.0625 13.4375 C-1.371875 13.953125 -1.68125 14.46875 -2 15 C-3.6112798 9.28728072 -2.08989546 5.31329355 0 0 Z " fill="#4B7D9E" transform="translate(136,16)"/>
<path d="M0 0 C4.55555556 0.55555556 4.55555556 0.55555556 6 2 C6.3125 4.375 6.3125 4.375 6 7 C4 8.8125 4 8.8125 2 10 C2.66666667 7.33333333 3.33333333 4.66666667 4 2 C2.02 2 0.04 2 -2 2 C-1.34 1.34 -0.68 0.68 0 0 Z " fill="#115687" transform="translate(179,12)"/>
<path d="M0 0 C4.29 0.33 8.58 0.66 13 1 C13 1.33 13 1.66 13 2 C9.04 2 5.08 2 1 2 C1 2.66 1 3.32 1 4 C0.01 4.33 -0.98 4.66 -2 5 C-1.34 3.35 -0.68 1.7 0 0 Z " fill="#80BBD4" transform="translate(91,150)"/>
<path d="M0 0 C0.33 0 0.66 0 1 0 C0.88637738 1.4800841 0.75877092 2.95910074 0.625 4.4375 C0.55539063 5.26121094 0.48578125 6.08492187 0.4140625 6.93359375 C0.27742187 7.61550781 0.14078125 8.29742187 0 9 C-0.99 9.495 -0.99 9.495 -2 10 C-2.66 8.35 -3.32 6.7 -4 5 C-2.69254251 3.31295807 -1.35827971 1.64639965 0 0 Z " fill="#5BABCC" transform="translate(132,140)"/>
<path d="M0 0 C1.66666667 1 3.33333333 2 5 3 C5.928125 3.53625 6.85625 4.0725 7.8125 4.625 C8.534375 5.07875 9.25625 5.5325 10 6 C10 6.33 10 6.66 10 7 C3.51020408 6.51020408 3.51020408 6.51020408 1.0625 4.0625 C0 2 0 2 0 0 Z " fill="#6BC6DD" transform="translate(70,117)"/>
<path d="M0 0 C1.32 0 2.64 0 4 0 C3.67 0.598125 3.34 1.19625 3 1.8125 C1.79212012 4.05386471 1.79212012 4.05386471 2 7 C0.68 7.33 -0.64 7.66 -2 8 C-1.47731534 5.23723823 -0.89130413 2.6739124 0 0 Z " fill="#73D0E4" transform="translate(127,87)"/>
<path d="M0 0 C3.93673644 1.31224548 6.22719294 2.91910327 9 6 C5 6 5 6 2 5 C0.8125 2.4375 0.8125 2.4375 0 0 Z " fill="#5A8EB1" transform="translate(43,73)"/>
<path d="M0 0 C3.50339864 1.84389402 5.78524611 3.11278755 7 7 C6.67 7.99 6.34 8.98 6 10 C3.25722422 6.80009492 1.3697164 3.99500618 0 0 Z " fill="#5E8EA9" transform="translate(74,56)"/>
<path d="M0 0 C0.33 0.99 0.66 1.98 1 3 C1.99 3.33 2.98 3.66 4 4 C1.03 5.65 -1.94 7.3 -5 9 C-3.7508258 5.54074837 -2.32472205 2.85306797 0 0 Z " fill="#5691B5" transform="translate(41,33)"/>
<path d="M0 0 C2.97 0.33 5.94 0.66 9 1 C5.23312136 2.88343932 3.97041037 3.22057835 0 3 C0 4.98 0 6.96 0 9 C-0.33 9 -0.66 9 -1 9 C-1.125 2.25 -1.125 2.25 0 0 Z " fill="#80C1D8" transform="translate(140,119)"/>
<path d="M0 0 C0.99 0.33 1.98 0.66 3 1 C3.33 3.31 3.66 5.62 4 8 C4.66 8 5.32 8 6 8 C6 8.99 6 9.98 6 11 C5.34 11 4.68 11 4 11 C3.32591692 9.73308493 2.66099503 8.46129251 2 7.1875 C1.62875 6.47980469 1.2575 5.77210938 0.875 5.04296875 C0 3 0 3 0 0 Z " fill="#69B4CF" transform="translate(137,162)"/>
<path d="M0 0 C7.38461538 -0.36923077 7.38461538 -0.36923077 10.5 1.5 C10.995 1.995 11.49 2.49 12 3 C7.06729471 4.6442351 4.45975807 3.18615592 0 1 C0 0.67 0 0.34 0 0 Z " fill="#A0D6EC" transform="translate(117,113)"/>
<path d="M0 0 C0.66 0 1.32 0 2 0 C2 0.99 2 1.98 2 3 C1.01 3.495 1.01 3.495 0 4 C-0.34022786 5.99883869 -0.67329097 7.99890722 -1 10 C-1.66 10.66 -2.32 11.32 -3 12 C-3.29162929 7.04230204 -3.12940055 3.97193147 0 0 Z " fill="#628EA7" transform="translate(64,19)"/>
<path d="M0 0 C2.31 1.98 4.62 3.96 7 6 C6 8 6 8 4 9 C4 8.34 4 7.68 4 7 C3.34 7 2.68 7 2 7 C1.34 4.69 0.68 2.38 0 0 Z " fill="#5EAFCC" transform="translate(151,148)"/>
<path d="M0 0 C2.50037734 2.17424117 3.43628586 3.73045798 4 7 C2.02 7.66 0.04 8.32 -2 9 C-2 8.01 -2 7.02 -2 6 C-1.01 6 -0.02 6 1 6 C0.67 4.02 0.34 2.04 0 0 Z " fill="#7BBED4" transform="translate(71,132)"/>
<path d="M0 0 C3.99500618 1.3697164 6.80009492 3.25722422 10 6 C6.6875 5.8125 6.6875 5.8125 3 5 C1.0625 2.4375 1.0625 2.4375 0 0 Z " fill="#5B93B4" transform="translate(33,67)"/>
<path d="M0 0 C0.66 0.33 1.32 0.66 2 1 C1.360625 1.763125 0.72125 2.52625 0.0625 3.3125 C-2.14232781 5.88246713 -2.14232781 5.88246713 -3 9 C-4.32 8.67 -5.64 8.34 -7 8 C-4.69 5.36 -2.38 2.72 0 0 Z " fill="#61ADCE" transform="translate(57,154)"/>
<path d="M0 0 C-0.33 0.66 -0.66 1.32 -1 2 C-2.77734375 2.484375 -2.77734375 2.484375 -4.9375 2.75 C-5.64777344 2.84796875 -6.35804687 2.9459375 -7.08984375 3.046875 C-9 3 -9 3 -11 1 C-7.32589215 -0.17571451 -3.83070817 -0.07366746 0 0 Z " fill="#7ABED6" transform="translate(43,157)"/>
<path d="M0 0 C4.29 0 8.58 0 13 0 C13 1.32 13 2.64 13 4 C12.34 4 11.68 4 11 4 C11 3.34 11 2.68 11 2 C7.37 1.67 3.74 1.34 0 1 C0 0.67 0 0.34 0 0 Z " fill="#3493C0" transform="translate(92,152)"/>
<path d="M0 0 C0.66 0.33 1.32 0.66 2 1 C1.67 2.65 1.34 4.3 1 6 C0.34 6 -0.32 6 -1 6 C-1.33 7.32 -1.66 8.64 -2 10 C-2 9.34 -2 8.68 -2 8 C-2.66 7.67 -3.32 7.34 -4 7 C-3.525625 6.21625 -3.05125 5.4325 -2.5625 4.625 C-1.66101977 3.11051322 -0.78820515 1.5764103 0 0 Z " fill="#48BDEB" transform="translate(115,130)"/>
<path d="M0 0 C1.8125 1.5 1.8125 1.5 3 3 C2.67 3.66 2.34 4.32 2 5 C1.01 4.34 0.02 3.68 -1 3 C-3.27912938 2.54605448 -3.27912938 2.54605448 -5.6875 2.375 C-6.49574219 2.30023438 -7.30398437 2.22546875 -8.13671875 2.1484375 C-8.75160156 2.09945312 -9.36648437 2.05046875 -10 2 C-10 1.67 -10 1.34 -10 1 C-6.60647414 0.22433695 -3.47914854 -0.36622616 0 0 Z " fill="#7CBDD5" transform="translate(67,125)"/>
<path d="M0 0 C2.74146784 2.74146784 4.21293716 5.54912004 6 9 C5.67 9.66 5.34 10.32 5 11 C3.0625 10 3.0625 10 1 8 C0.33450549 5.30075428 0.18319237 2.79368363 0 0 Z " fill="#84D5E7" transform="translate(89,85)"/>
<path d="M0 0 C1.69433918 3.0469629 2.49467112 5.82821466 3.125 9.25 C3.29257813 10.14203125 3.46015625 11.0340625 3.6328125 11.953125 C3.75398438 12.62859375 3.87515625 13.3040625 4 14 C3.34 14 2.68 14 2 14 C0.4087311 9.126739 -0.21192221 5.19209404 0 0 Z " fill="#38B5D5" transform="translate(94,75)"/>
<path d="M0 0 C1.32 0 2.64 0 4 0 C4.99 2.31 5.98 4.62 7 7 C4.13302508 5.71480435 2.02392288 4.42870746 0 2 C0 1.34 0 0.68 0 0 Z " fill="#4583A9" transform="translate(36,59)"/>
<path d="M0 0 C0.33 0.66 0.66 1.32 1 2 C1.66 2.33 2.32 2.66 3 3 C1.68 4.65 0.36 6.3 -1 8 C-1.66 7.67 -2.32 7.34 -3 7 C-1.125 1.125 -1.125 1.125 0 0 Z " fill="#3A7094" transform="translate(140,9)"/>
<path d="M0 0 C0.33 0 0.66 0 1 0 C1 2.64 1 5.28 1 8 C-0.98 8.99 -0.98 8.99 -3 10 C-2.39009109 6.44219804 -1.4216319 3.3171411 0 0 Z " fill="#67B4CF" transform="translate(83,166)"/>
<path d="M0 0 C0.66 0 1.32 0 2 0 C1.38461538 6.52307692 1.38461538 6.52307692 -0.5625 8.9375 C-1.036875 9.288125 -1.51125 9.63875 -2 10 C-2.22036864 6.14354879 -1.60355101 3.50776784 0 0 Z " fill="#5CA9C7" transform="translate(86,148)"/>
<path d="M0 0 C0.66 0.33 1.32 0.66 2 1 C-1.32307692 5.8 -1.32307692 5.8 -4.75 6.8125 C-5.4925 6.874375 -6.235 6.93625 -7 7 C-4.66666667 4.66666667 -2.33333333 2.33333333 0 0 Z " fill="#73B7D3" transform="translate(73,141)"/>
<path d="M0 0 C0.66 0 1.32 0 2 0 C1.6875 2.375 1.6875 2.375 1 5 C-2 7 -2 7 -5 7 C-5 6.34 -5 5.68 -5 5 C-3.68 5 -2.36 5 -1 5 C-0.67 3.35 -0.34 1.7 0 0 Z " fill="#76C1DB" transform="translate(127,134)"/>
<path d="M0 0 C0.66 0.99 1.32 1.98 2 3 C0.68 5.31 -0.64 7.62 -2 10 C-2.66 9.67 -3.32 9.34 -4 9 C-1.125 2.25 -1.125 2.25 0 0 Z " fill="#83CEE3" transform="translate(107,130)"/>
<path d="M0 0 C1.9375 0.5 1.9375 0.5 4 2 C4.68790422 4.69658452 4.81946464 7.2017019 5 10 C4.34 8.68 3.68 7.36 3 6 C2.34 6 1.68 6 1 6 C0.67 4.02 0.34 2.04 0 0 Z " fill="#3B9AC9" transform="translate(67,128)"/>
<path d="M0 0 C0.33 0 0.66 0 1 0 C1.042721 1.66611905 1.04063832 3.33382885 1 5 C0 6 0 6 -3.0625 6.0625 C-4.5165625 6.0315625 -4.5165625 6.0315625 -6 6 C-6 5.34 -6 4.68 -6 4 C-4.68 4 -3.36 4 -2 4 C-2 3.34 -2 2.68 -2 2 C-1.34 2 -0.68 2 0 2 C0 1.34 0 0.68 0 0 Z " fill="#A4D6E7" transform="translate(108,107)"/>
<path d="M0 0 C0.66 0 1.32 0 2 0 C2 1.65 2 3.3 2 5 C1.34 5 0.68 5 0 5 C-0.33 6.32 -0.66 7.64 -1 9 C-1.33 9 -1.66 9 -2 9 C-2.20140476 5.37471432 -1.85776765 3.13498292 0 0 Z " fill="#2295C6" transform="translate(76,161)"/>
<path d="M0 0 C2.97 0.33 5.94 0.66 9 1 C8.01 2.485 8.01 2.485 7 4 C4.97954558 3.39816251 2.97888961 2.72693904 1 2 C0.67 1.34 0.34 0.68 0 0 Z " fill="#56C3DC" transform="translate(168,122)"/>
<path d="M0 0 C0 3 0 3 -2.5 5.6875 C-3.325 6.450625 -4.15 7.21375 -5 8 C-5.33 6.68 -5.66 5.36 -6 4 C-4.02 2.68 -2.04 1.36 0 0 Z " fill="#7AA6BB" transform="translate(166,40)"/>
<path d="M0 0 C0.33 0.66 0.66 1.32 1 2 C-0.25 4.5625 -0.25 4.5625 -2 7 C-2.99 7.33 -3.98 7.66 -5 8 C-5 7.01 -5 6.02 -5 5 C-4.01 5 -3.02 5 -2 5 C-2 3.68 -2 2.36 -2 1 C-1.34 0.67 -0.68 0.34 0 0 Z " fill="#8DCDE0" transform="translate(117,136)"/>
<path d="M0 0 C1.65 0 3.3 0 5 0 C4.67 1.32 4.34 2.64 4 4 C2.68 4.33 1.36 4.66 0 5 C0 3.35 0 1.7 0 0 Z " fill="#47BDEE" transform="translate(122,123)"/>
<path d="M0 0 C0 0.66 0 1.32 0 2 C-0.70125 1.855625 -1.4025 1.71125 -2.125 1.5625 C-5.07556141 0.98521625 -8.03270151 0.48304859 -11 0 C-11 -0.33 -11 -0.66 -11 -1 C-6.58937864 -2.0257259 -4.07369424 -2.03684712 0 0 Z " fill="#3AB6D6" transform="translate(156,117)"/>
<path d="M0 0 C0 0.33 0 0.66 0 1 C-1.43554025 1.50559908 -2.8735202 2.0042749 -4.3125 2.5 C-5.51326172 2.91765625 -5.51326172 2.91765625 -6.73828125 3.34375 C-9 4 -9 4 -12 4 C-12 3.34 -12 2.68 -12 2 C-7.8794254 0.00214565 -4.54805635 -0.17835515 0 0 Z " fill="#51BDDA" transform="translate(152,98)"/>
<path d="M0 0 C0.66 0 1.32 0 2 0 C1.60196439 2.88575819 1.20990931 3.82189513 -1.0625 5.75 C-1.701875 6.1625 -2.34125 6.575 -3 7 C-2.25 2.25 -2.25 2.25 0 0 Z " fill="#6EB6D1" transform="translate(68,176)"/>
<path d="M0 0 C0.99 0.33 1.98 0.66 3 1 C3 3.64 3 6.28 3 9 C2.01 8.67 1.02 8.34 0 8 C0.66 8 1.32 8 2 8 C1.67 7.4225 1.34 6.845 1 6.25 C0 4 0 4 0 0 Z " fill="#0F71AD" transform="translate(60,111)"/>
<path d="M0 0 C4.95 0.99 4.95 0.99 10 2 C6.77208445 4.1519437 5.71599191 4.20086443 2 4 C1.34 2.68 0.68 1.36 0 0 Z " fill="#92D8E7" transform="translate(99,96)"/>
<path d="M0 0 C1.32 0.99 2.64 1.98 4 3 C3.67 3.99 3.34 4.98 3 6 C1.35 6.33 -0.3 6.66 -2 7 C-2 6.34 -2 5.68 -2 5 C-1.01 5 -0.02 5 1 5 C0.67 3.35 0.34 1.7 0 0 Z " fill="#85CEE0" transform="translate(164,90)"/>
<path d="M0 0 C0.33 0 0.66 0 1 0 C0.67 3.3 0.34 6.6 0 10 C-0.66 9.34 -1.32 8.68 -2 8 C-1.69347955 5.0574037 -1.32728846 2.65457692 0 0 Z " fill="#6191B3" transform="translate(19,67)"/>
<path d="M0 0 C0.78375 0.04125 1.5675 0.0825 2.375 0.125 C2.045 1.445 1.715 2.765 1.375 4.125 C-0.605 3.465 -2.585 2.805 -4.625 2.125 C-2.625 0.125 -2.625 0.125 0 0 Z " fill="#5E8AA2" transform="translate(144.625,66.875)"/>
<path d="M0 0 C0.66 1.32 1.32 2.64 2 4 C1.01 4.99 0.02 5.98 -1 7 C-1.66 5.35 -2.32 3.7 -3 2 C-2.34 2 -1.68 2 -1 2 C-0.67 1.34 -0.34 0.68 0 0 Z " fill="#2F6A8F" transform="translate(148,61)"/>
<path d="M0 0 C1.9375 0.5625 1.9375 0.5625 4 2 C4.75 5.625 4.75 5.625 5 9 C0.57142857 3.85714286 0.57142857 3.85714286 0 0 Z " fill="#6F9BB2" transform="translate(69,47)"/>
<path d="M0 0 C0.66 0 1.32 0 2 0 C1.67 2.64 1.34 5.28 1 8 C0.34 8 -0.32 8 -1 8 C-1.04241723 5.66705225 -1.04092937 3.33297433 -1 1 C-0.67 0.67 -0.34 0.34 0 0 Z " fill="#116099" transform="translate(35,45)"/>
<path d="M0 0 C-0.33 0.66 -0.66 1.32 -1 2 C-1.66 2 -2.32 2 -3 2 C-4.37310707 3.29233607 -5.71034824 4.62437146 -7 6 C-7.66 5.67 -8.32 5.34 -9 5 C-4.5 0 -4.5 0 0 0 Z " fill="#83ACC6" transform="translate(51,27)"/>
<path d="M0 0 C0.99 0 1.98 0 3 0 C3.33 2.64 3.66 5.28 4 8 C1.84622436 5.37801226 0.59927826 3.35595828 0 0 Z " fill="#58A6CA" transform="translate(131,150)"/>
<path d="M0 0 C1.32 0 2.64 0 4 0 C4.33 1.98 4.66 3.96 5 6 C3.31237149 4.3545622 1.6459651 2.68711423 0 1 C0 0.67 0 0.34 0 0 Z " fill="#4AA0C4" transform="translate(150,140)"/>
<path d="M0 0 C0.66 0.33 1.32 0.66 2 1 C-0.05233685 3.2477975 -1.00667261 4.0022242 -4 5 C-4.66 5.66 -5.32 6.32 -6 7 C-5.67 5.68 -5.34 4.36 -5 3 C-4.34 3 -3.68 3 -3 3 C-3 2.34 -3 1.68 -3 1 C-2.01 0.67 -1.02 0.34 0 0 Z " fill="#2694CA" transform="translate(28,136)"/>
<path d="M0 0 C2.31 0.33 4.62 0.66 7 1 C5 3 5 3 2.375 3.125 C1.59125 3.08375 0.8075 3.0425 0 3 C0 2.01 0 1.02 0 0 Z " fill="#78CFF3" transform="translate(105,118)"/>
<path d="M0 0 C0.66 0 1.32 0 2 0 C2.66 0.99 3.32 1.98 4 3 C4.99 3.66 5.98 4.32 7 5 C5.02 5 3.04 5 1 5 C0.67 3.35 0.34 1.7 0 0 Z " fill="#64C3DA" transform="translate(125,98)"/>
<path d="M0 0 C3.37503669 1.1858237 5.64722731 2.27573689 8 5 C7.01 5.33 6.02 5.66 5 6 C2.3125 4.1875 2.3125 4.1875 0 2 C0 1.34 0 0.68 0 0 Z " fill="#6499B8" transform="translate(54,80)"/>
</svg>
